<svg width="207" height="70" viewBox="0 0 207 70" fill="none" xmlns="http://www.w3.org/2000/svg">
<path d="M8.30202 42.4694C8.05496 42.2224 7.8079 42.0988 7.56084 42.0988L6.9679 42.2471C6.91849 42.2471 6.81966 42.1977 6.67143 42.0988C6.52319 42 6.42437 41.9506 6.37496 41.9506C6.22672 41.9506 6.15261 42 6.15261 42.0988C5.85614 41.8024 5.60908 41.6541 5.41143 41.6541H5.33731C5.33731 41.7035 5.2879 41.7282 5.18908 41.7282C5.04084 41.7282 4.89261 41.6047 4.74437 41.3577L4.4479 40.9871C4.39849 40.9871 4.25025 40.8388 4.00319 40.5424C3.75614 40.2459 3.68202 39.7765 3.78084 39.1341V38.9118C3.73143 38.8129 3.58319 38.8129 3.33614 38.9118C3.28672 38.8129 3.23731 38.7141 3.1879 38.6153C3.13849 38.4671 3.06437 38.3188 2.96555 38.1706C2.91614 38.1706 2.69378 38.3682 2.29849 38.7635L1.85378 38.9859L1.40908 39.6529C1.06319 39.8506 0.840841 39.9988 0.742018 40.0977C0.643194 40.1965 0.569076 40.2459 0.519665 40.2459H0.297312C0.0996646 40.1965 0.000841038 40.0977 0.000841038 39.9494C0.000841038 39.8506 0.0996646 39.6777 0.297312 39.4306C0.54437 39.1835 0.717312 39.06 0.816135 39.06C0.914959 39.1094 0.989076 39.1341 1.03849 39.1341L1.11261 38.8377C1.60672 38.64 1.85378 38.3682 1.85378 38.0224L2.37261 37.5777C2.57025 37.5777 2.74319 37.4294 2.89143 37.1329L3.1879 36.9106L3.48437 35.4282C3.58319 35.4282 3.65731 35.3788 3.70672 35.28C3.75614 35.1812 3.87966 34.8847 4.07731 34.3906C4.12672 34.3412 4.12672 34.1682 4.07731 33.8718C4.07731 33.8718 4.05261 33.8718 4.00319 33.8718C4.00319 33.8718 3.97849 33.8471 3.92908 33.7977C4.07731 33.6 4.07731 33.3282 3.92908 32.9824C3.97849 32.7847 4.17614 32.6365 4.52202 32.5377C4.57143 32.4388 4.74437 32.2412 5.04084 31.9447C5.09025 31.9941 5.18908 31.5247 5.33731 30.5365C5.33731 30.4377 5.46084 30.3388 5.7079 30.24C5.75731 29.6965 5.83143 29.3012 5.93025 29.0541C6.07849 28.7577 6.30084 28.3871 6.59731 27.9424C6.69614 27.3 6.81966 26.9047 6.9679 26.7565C7.51143 26.0647 7.8079 25.5459 7.85731 25.2C8.20319 25.1506 8.54908 24.8047 8.89496 24.1624C8.89496 24.1624 8.87025 24.1624 8.82084 24.1624C8.82084 24.1624 8.82084 24.1377 8.82084 24.0882C8.82084 23.6929 9.16672 23.0753 9.85849 22.2353C10.5503 21.4447 11.3408 20.4318 12.2303 19.1965C12.3785 19.1471 12.7491 18.8259 13.342 18.2329C13.6385 18.1341 13.8114 18.06 13.8608 18.0106C13.9103 18.1094 13.935 18.1835 13.935 18.2329C13.935 18.5294 13.7867 18.7271 13.4903 18.8259C12.9467 19.6659 12.675 20.0365 12.675 19.9377C12.675 20.0365 12.7244 20.0859 12.8232 20.0859C12.8726 20.0859 12.8973 20.0612 12.8973 20.0118H12.9714C13.0703 20.0118 13.2432 20.1353 13.4903 20.3824C13.5891 20.2835 13.7126 20.2094 13.8608 20.16C13.8608 20.16 13.8608 20.1353 13.8608 20.0859C13.8608 19.9871 13.8855 19.8882 13.935 19.7894C13.9844 19.74 14.0832 19.6906 14.2314 19.6412C14.3797 19.5424 14.5526 19.3941 14.7503 19.1965C14.7997 18.9988 14.8985 18.7518 15.0467 18.4553C15.2444 18.1094 15.5161 17.8377 15.862 17.64C15.8126 17.5906 15.8126 17.4671 15.862 17.2694C16.0103 17.3188 16.1585 17.2447 16.3067 17.0471C16.5044 16.8494 16.6773 16.7753 16.8255 16.8247C16.9244 16.5282 17.0232 16.3059 17.122 16.1577L17.5667 15.9353C17.6655 15.1941 17.9126 14.8235 18.3079 14.8235C18.4067 14.8729 18.4808 14.8977 18.5303 14.8977L18.6044 14.6012C18.6538 14.5518 18.7279 14.5024 18.8267 14.4529C18.9255 14.4035 19.0244 14.3294 19.1232 14.2306V14.0824C19.1232 13.5882 19.4197 13.3165 20.0126 13.2671C20.062 13.1682 20.0867 12.9459 20.0867 12.6H20.4573C20.6055 12.4518 20.7044 12.3282 20.7538 12.2294C20.8032 12.1306 20.9267 12.0318 21.1244 11.9329C21.075 11.3894 21.4208 10.5494 22.162 9.41295C21.9644 9.56118 21.7914 9.6353 21.6432 9.6353C21.5938 9.6353 21.5691 9.61059 21.5691 9.56118C21.5691 9.46236 21.5691 9.36353 21.5691 9.26471C21.5691 9.16589 21.5938 9.01765 21.6432 8.82C21.742 8.72118 21.8655 8.59765 22.0138 8.44942C22.2114 8.30118 22.4091 8.15295 22.6067 8.00471C22.7055 7.90589 22.8044 7.80706 22.9032 7.70824C23.0514 7.56001 23.2244 7.38706 23.422 7.18942C23.5703 7.14001 23.8173 6.86824 24.1632 6.37412C24.262 6.2753 24.3855 6.15177 24.5338 6.00353C24.682 5.80589 24.8055 5.60824 24.9044 5.41059C25.2997 5.31177 25.5714 5.06471 25.7197 4.66942C25.8679 4.27412 26.3373 3.92824 27.1279 3.63177C27.3255 3.38471 27.6961 3.11294 28.2397 2.81647C28.2397 2.81647 28.2891 2.66824 28.3879 2.37177C28.6844 2.27294 29.0797 1.90236 29.5738 1.26001C29.6232 1.16118 29.895 0.938828 30.3891 0.592947C30.9326 0.197652 31.2291 4.95159e-06 31.2785 4.95159e-06H31.575C31.575 4.95159e-06 31.7479 0.0988287 32.0938 0.296476C32.4397 0.44471 32.8597 0.667063 33.3538 0.963535L33.502 1.85294L33.2797 2.29765L33.7985 2.52C33.8479 2.52 33.8726 2.59412 33.8726 2.74236C33.8726 2.98942 33.7985 3.38471 33.6503 3.92824C33.6008 4.22471 33.5514 4.52118 33.502 4.81765C33.502 5.06471 33.5267 5.31177 33.5761 5.55883L32.0938 7.63412L31.575 8.3753C31.5255 8.3753 31.402 8.42471 31.2044 8.52353C30.6608 9.01765 30.0432 9.90706 29.3514 11.1918C29.302 11.1918 29.2773 11.1918 29.2773 11.1918C29.2773 11.1424 29.2526 11.1177 29.2032 11.1177C28.9561 11.2659 28.7338 11.5871 28.5361 12.0812L27.8691 12.3777C27.7703 12.5753 27.622 12.7729 27.4244 12.9706L27.2761 12.8224L27.0538 13.5635C26.8067 13.7612 26.6585 13.9588 26.6091 14.1565C26.6091 14.3047 26.535 14.4777 26.3867 14.6753L25.4973 15.4165C25.4479 15.4659 25.1514 15.6635 24.6079 16.0094C24.1138 16.3553 23.8667 16.6024 23.8667 16.7506C23.5703 17.0965 23.175 17.5412 22.6808 18.0847C22.2361 18.5788 21.6926 19.1965 21.0503 19.9377C20.8526 20.1847 20.5808 20.4812 20.235 20.8271C19.9385 21.1235 19.5432 21.4694 19.0491 21.8647C18.9503 21.9635 18.7773 22.1612 18.5303 22.4577C18.2832 22.7047 17.9867 23.0259 17.6408 23.4212C17.3938 23.5694 17.0973 23.7671 16.7514 24.0141C16.4055 24.2612 16.035 24.5577 15.6397 24.9035C15.6397 24.9529 15.5655 25.0271 15.4173 25.1259C15.2691 25.2247 15.0467 25.4965 14.7503 25.9412H14.5279C14.3797 26.1388 14.182 26.3612 13.935 26.6082C13.7373 26.8553 13.515 27.1765 13.2679 27.5718C13.1691 27.5718 13.095 27.5965 13.0455 27.6459C12.6997 28.14 12.3291 28.5106 11.9338 28.7577C11.9338 28.8071 11.8844 28.8812 11.7855 28.98C11.7361 29.0788 11.5879 29.2024 11.3408 29.3506C11.3408 29.4494 11.2914 29.5977 11.1926 29.7953C11.0938 29.9929 10.8961 30.1659 10.5997 30.3141C10.5503 30.3635 10.5255 30.4624 10.5255 30.6106H10.3032C10.155 30.7588 10.0314 30.9565 9.93261 31.2035C9.43849 31.3518 9.21614 31.5988 9.26555 31.9447L8.59849 32.5377C8.15378 32.8835 7.70908 33.3529 7.26437 33.9459C7.21496 34.0941 7.06672 34.7365 6.81966 35.8729C6.91849 35.9718 6.91849 36.2435 6.81966 36.6882C6.67143 37.1824 6.59731 37.5035 6.59731 37.6518C6.59731 37.8 6.59731 37.8988 6.59731 37.9482C6.59731 38.1953 6.72084 38.4918 6.9679 38.8377C7.26437 39.1835 7.41261 39.4553 7.41261 39.6529C7.56084 39.7518 7.75849 39.7518 8.00555 39.6529C8.00555 39.7518 8.10437 39.8259 8.30202 39.8753C8.45025 40.2212 8.74672 40.4188 9.19143 40.4682L9.41378 40.1718H9.63614C9.68555 40.3694 9.80908 40.4682 10.0067 40.4682C10.1055 40.4682 10.2291 40.4188 10.3773 40.32C10.575 40.2212 10.6985 40.1718 10.7479 40.1718C10.6985 40.2212 10.7726 40.2706 10.9703 40.32C11.0197 40.2706 11.0444 40.1471 11.0444 39.9494H11.6373C12.6255 39.9494 13.2432 39.7518 13.4903 39.3565C13.6879 39.3071 13.9103 39.2329 14.1573 39.1341C14.4044 39.0353 14.7008 38.9365 15.0467 38.8377C15.2444 38.7388 15.3679 38.5906 15.4173 38.3929C15.3679 38.3929 15.3432 38.3682 15.3432 38.3188H16.1585V37.9482C16.2573 37.8988 16.5291 37.8741 16.9738 37.8741L17.2703 37.4294L18.0855 36.9847C18.135 36.9847 18.2338 36.96 18.382 36.9106C18.5797 36.8612 18.8267 36.6635 19.1232 36.3177C19.222 36.3177 19.3208 36.2929 19.4197 36.2435C19.7161 36.0459 20.1855 35.6012 20.8279 34.9094L22.2361 34.1682L22.3844 34.02H23.0514C23.002 34.2177 22.8538 34.4647 22.6067 34.7612L21.6432 35.4282C21.0008 35.8729 20.7044 36.0953 20.7538 36.0953H20.6797C20.6797 36.0459 20.655 36.0212 20.6055 36.0212C20.2103 36.2188 19.9632 36.4659 19.8644 36.7624C19.7161 36.7624 19.6173 36.8612 19.5679 37.0588C19.4691 37.0588 19.3455 37.0835 19.1973 37.1329C19.1973 37.1329 19.1973 37.1577 19.1973 37.2071C19.1973 37.2071 19.1726 37.2565 19.1232 37.3553L18.1597 38.0224C18.1597 38.2694 17.962 38.4424 17.5667 38.5412C17.4185 38.5412 17.2455 38.4424 17.0479 38.2447L16.6032 38.5412V38.6153C16.6032 38.8624 16.4797 39.06 16.2326 39.2082C15.9855 39.3565 15.7879 39.3812 15.6397 39.2824C15.6891 39.3318 15.7138 39.4306 15.7138 39.5788C15.7138 39.6282 15.5903 39.8259 15.3432 40.1718L13.5644 41.0612H13.4903C13.4903 41.0118 13.4408 40.9871 13.342 40.9871C13.0455 40.9871 12.7491 41.1353 12.4526 41.4318C12.3044 41.4812 12.0079 41.58 11.5632 41.7282C11.1185 41.8765 10.8714 41.9506 10.822 41.9506L10.5997 41.8024H9.63614C9.43849 41.8024 9.31496 41.8765 9.26555 42.0247C9.21614 42.1729 9.14202 42.2471 9.04319 42.2471C8.99378 42.2471 8.96908 42.2224 8.96908 42.1729H8.82084C8.52437 42.1729 8.35143 42.2718 8.30202 42.4694ZM8.67261 31.5L8.96908 31.3518C9.21614 31.1047 9.46319 30.8082 9.71025 30.4624C10.0067 30.1165 10.3032 29.7459 10.5997 29.3506C10.5997 29.3506 10.6738 29.2765 10.822 29.1282C10.9703 28.98 11.0444 28.8318 11.0444 28.6835C11.2914 28.4365 11.5632 28.1894 11.8597 27.9424C12.1561 27.6459 12.502 27.3247 12.8973 26.9788L13.1938 26.46C13.2432 26.4106 13.3173 26.3612 13.4161 26.3118C13.515 26.2624 13.6138 26.1882 13.7126 26.0894L15.3432 24.4588C15.3926 24.4094 15.4173 24.3106 15.4173 24.1624C15.7632 23.9153 15.9608 23.6929 16.0103 23.4953C16.1091 23.4459 16.282 23.2977 16.5291 23.0506C16.7761 22.8035 17.0726 22.4824 17.4185 22.0871C17.6161 22.0871 17.8632 21.8647 18.1597 21.42C18.2585 21.3706 18.4314 21.2224 18.6785 20.9753C19.3208 19.8882 19.642 19.32 19.642 19.2706H19.8644L20.9761 18.0847C21.1738 17.8871 21.2726 17.6153 21.2726 17.2694C22.1126 16.8741 22.582 16.38 22.6808 15.7871L23.1997 15.4165C23.1997 15.2682 23.3726 15.0212 23.7185 14.6753C23.7185 14.6753 23.7432 14.6753 23.7926 14.6753C23.842 14.6753 23.8914 14.6506 23.9408 14.6012C24.0397 14.4529 24.1385 14.28 24.2373 14.0824C24.3855 13.8353 24.5585 13.5388 24.7561 13.1929H25.1267L25.3491 12.6741C25.4479 12.4765 25.5961 12.2788 25.7938 12.0812C26.0408 11.8341 26.2879 11.5377 26.535 11.1918V10.8953C26.6832 10.8953 26.8561 10.8212 27.0538 10.6729C27.1032 10.5741 27.1526 10.4753 27.202 10.3765C27.2514 10.2282 27.3255 10.0553 27.4244 9.85765C27.622 9.51177 27.8691 9.11648 28.1655 8.67177C28.5114 8.22706 28.882 7.70824 29.2773 7.1153C29.2773 6.76942 29.475 6.34942 29.8703 5.8553V5.63295C29.9197 5.58353 29.895 5.55883 29.7961 5.55883C29.6973 5.55883 29.5985 5.60824 29.4997 5.70706C28.2644 6.64589 27.2514 7.43648 26.4608 8.07883C25.7197 8.72118 25.2255 9.19059 24.9785 9.48706C24.8303 9.53648 24.682 9.68471 24.5338 9.93177C24.5338 9.93177 24.4597 10.0059 24.3114 10.1541C24.2126 10.3024 24.0397 10.5 23.7926 10.7471C23.6444 10.9447 23.422 11.0188 23.1255 10.9694C23.0761 11.3647 22.7797 11.76 22.2361 12.1553C21.742 12.5012 21.4703 12.8224 21.4208 13.1188C20.9267 13.3659 20.3091 13.9588 19.5679 14.8977C18.9255 15.54 18.0361 16.5777 16.8997 18.0106C16.6032 18.1588 16.2326 18.6282 15.7879 19.4188L15.2691 19.8635C15.2691 20.0612 15.0467 20.2835 14.602 20.5306C14.602 20.6788 14.5032 20.8518 14.3055 21.0494C14.1079 21.2471 14.0091 21.3953 14.0091 21.4941C13.8608 21.6918 13.6138 21.9388 13.2679 22.2353C13.2679 22.2353 13.2185 22.3835 13.1197 22.68C13.0208 22.8777 12.8973 23.0506 12.7491 23.1988C12.6008 23.2977 12.4773 23.3965 12.3785 23.4953C12.3291 23.6929 12.3044 23.8412 12.3044 23.94C12.3044 24.0388 12.3044 24.1129 12.3044 24.1624C12.0573 24.4094 11.7855 24.7553 11.4891 25.2C11.242 25.6447 10.9703 26.1388 10.6738 26.6824C10.4267 26.6824 10.2291 26.9047 10.0808 27.3494C9.93261 27.7941 9.80908 28.0412 9.71025 28.0906C9.61143 28.1894 9.4879 28.2635 9.33966 28.3129V28.6094L9.63614 28.8318C9.43849 29.2765 9.19143 29.5235 8.89496 29.5729C8.89496 29.7706 8.84555 29.9682 8.74672 30.1659C8.74672 30.2153 8.79614 30.24 8.89496 30.24C8.79614 30.4871 8.72202 30.6353 8.67261 30.6847C8.62319 30.7341 8.54908 30.8082 8.45025 30.9071L8.67261 31.5ZM26.9797 30.3141C26.9797 30.1165 27.1773 29.82 27.5726 29.4247H27.6467C27.6467 29.4741 27.6714 29.4988 27.7208 29.4988C27.7703 29.4988 27.9432 29.3012 28.2397 28.9059C28.5361 28.4612 28.7091 28.2388 28.7585 28.2388C28.9067 28.2388 29.0797 28.3129 29.2773 28.4612V29.1282C29.1785 29.1777 29.055 29.3012 28.9067 29.4988C28.7585 29.6471 28.6597 29.7212 28.6103 29.7212C28.462 29.7212 28.3138 29.6471 28.1655 29.4988C28.1161 29.4988 28.0173 29.6471 27.8691 29.9435L27.202 30.3141H26.9797ZM24.015 33.2047C24.015 33.1059 23.9161 33.0318 23.7185 32.9824C24.0644 32.7847 24.5832 32.2906 25.275 31.5C25.4726 31.5494 25.6455 31.4012 25.7938 31.0553C25.942 30.7094 26.115 30.5118 26.3126 30.4624H26.6832L26.8314 30.6106C26.782 30.7588 26.7079 30.9318 26.6091 31.1294C26.5103 31.3271 26.3867 31.5494 26.2385 31.7965H26.1644C26.0161 31.7965 25.8432 31.8953 25.6455 32.0929C25.4973 32.2412 25.4232 32.3647 25.4232 32.4635C25.4232 32.5129 25.3244 32.5871 25.1267 32.6859C24.9291 32.7353 24.6573 32.9082 24.3114 33.2047H24.015ZM23.1255 33.9459V33.2788C23.2244 33.3282 23.2985 33.3777 23.3479 33.4271C23.3973 33.4271 23.422 33.4271 23.422 33.4271C23.5208 33.4271 23.5703 33.3777 23.5703 33.2788C23.6691 33.3777 23.8173 33.4271 24.015 33.4271C23.7185 33.7729 23.422 33.9459 23.1255 33.9459ZM29.1129 41.8024C29.1129 41.8024 28.9399 41.7035 28.594 41.5059C28.4458 41.5059 28.2235 41.4812 27.927 41.4318C27.6305 41.3824 27.1858 41.2094 26.5929 40.9129C26.494 40.8635 26.3458 40.8141 26.1482 40.7647C25.9999 40.6659 25.827 40.5424 25.6293 40.3941C25.5799 40.1471 25.3576 39.7765 24.9623 39.2824H24.814L24.5917 39.4306C24.5423 39.1835 24.394 38.9612 24.147 38.7635C24.147 38.5659 24.0482 38.3435 23.8505 38.0965C23.9493 37.7012 23.9493 37.2565 23.8505 36.7624C23.7517 36.4659 23.554 36.1694 23.2576 35.8729L23.4799 35.5765C23.5787 35.3788 23.6776 35.1565 23.7764 34.9094C23.8752 34.6129 23.974 34.2918 24.0729 33.9459C24.1223 33.7482 24.1717 33.5259 24.2211 33.2788C24.2705 33.0318 24.3446 32.7353 24.4435 32.3894C24.394 32.34 24.147 32.1424 23.7023 31.7965C23.307 31.4506 22.9611 31.3518 22.6646 31.5C22.714 31.4012 22.7387 31.3271 22.7387 31.2777C22.7387 31.1788 22.7387 31.1294 22.7387 31.1294C22.7387 31.08 22.6893 31.0306 22.5905 30.9812C22.4917 30.8824 22.4423 30.7835 22.4423 30.6847C22.4423 30.6847 22.5164 30.6106 22.6646 30.4624C22.8129 30.2647 22.9117 30.1659 22.9611 30.1659C23.0599 30.1659 23.2082 30.2153 23.4058 30.3141C23.6529 30.4129 23.8258 30.4624 23.9246 30.4624C23.974 30.4624 24.0482 30.4377 24.147 30.3882C24.2458 30.3388 24.3199 30.3141 24.3693 30.3141L25.6293 30.6106C25.7282 30.6106 25.8764 30.5612 26.074 30.4624L27.927 28.6094C28.0752 28.6094 28.1493 28.5847 28.1493 28.5353C28.1987 28.4365 28.4705 28.1647 28.9646 27.72C29.014 27.72 29.0882 27.6953 29.187 27.6459C29.3352 27.5965 29.5329 27.4482 29.7799 27.2012L30.0023 26.8306C31.4352 25.8424 32.6952 25.3482 33.7823 25.3482H34.3011C34.2023 25.4471 34.2517 25.4965 34.4493 25.4965C34.4987 25.4965 34.5729 25.4718 34.6717 25.4224C34.7705 25.3729 34.8446 25.3482 34.894 25.3482L35.3387 25.6447H35.7835C35.9811 25.8424 36.0799 25.9412 36.0799 25.9412C36.1293 25.9412 36.154 25.9165 36.154 25.8671H36.2282C36.1293 25.8671 36.2282 26.0153 36.5246 26.3118C36.5246 26.3118 36.4011 26.7071 36.154 27.4977C36.0058 27.5965 35.7835 27.7941 35.487 28.0906C35.2399 28.3871 35.067 28.5353 34.9682 28.5353C34.9187 28.5353 34.7952 28.4859 34.5976 28.3871C34.4493 28.2882 34.3258 28.2388 34.227 28.2388C34.1776 28.2388 34.0293 28.2882 33.7823 28.3871C33.5352 28.4859 33.3623 28.5847 33.2635 28.6835C33.214 28.7329 33.0905 28.8071 32.8929 28.9059C32.7446 28.9553 32.1764 29.1529 31.1882 29.4988C31.2376 29.8447 31.1635 30.0424 30.9658 30.0918C30.6199 30.1412 30.3976 30.2647 30.2987 30.4624V30.5365C30.5458 30.7835 31.114 30.9071 32.0035 30.9071C32.0529 30.9071 32.1023 30.8824 32.1517 30.8329C32.2505 30.7835 32.3493 30.7588 32.4482 30.7588C32.4976 30.7588 32.547 30.7835 32.5964 30.8329H32.7446C32.794 30.8329 32.8682 30.8082 32.967 30.7588C33.0658 30.66 33.1399 30.6106 33.1893 30.6106C33.2882 30.6106 33.5846 30.6847 34.0787 30.8329C34.5729 30.9812 34.8446 31.0553 34.894 31.0553C35.0917 31.0553 35.2399 30.9318 35.3387 30.6847L35.6352 30.9071H36.0058C36.0552 30.9071 36.154 30.8329 36.3023 30.6847V30.5365C35.907 30.2894 35.6105 30.1659 35.4129 30.1659V29.5729L35.7835 29.4247C35.8329 29.4247 35.8823 29.4494 35.9317 29.4988H36.0799L36.747 29.2765C36.8952 29.5729 37.0682 29.82 37.2658 30.0177C37.3152 30.0177 37.3399 29.9682 37.3399 29.8694C37.4882 29.9188 37.6858 30.0671 37.9329 30.3141C38.2293 30.5118 38.427 30.6106 38.5258 30.6106C38.5752 30.6106 38.6493 30.5859 38.7482 30.5365C38.847 30.4377 38.9458 30.3635 39.0446 30.3141H39.4152C39.8599 30.3141 40.354 30.2153 40.8976 30.0177L41.1199 30.1659C41.2682 30.0177 41.4411 29.9435 41.6387 29.9435C41.7376 29.9435 41.787 29.9682 41.787 30.0177H41.8611L42.6764 29.8694C42.7752 29.7706 42.9482 29.6965 43.1952 29.6471C43.4423 29.5977 43.8623 29.5729 44.4552 29.5729C44.5046 29.5729 44.5293 29.5482 44.5293 29.4988C44.727 29.4 44.9246 29.3259 45.1223 29.2765C45.3693 29.2271 45.6411 29.1777 45.9376 29.1282C45.987 29.0788 46.0858 29.0047 46.234 28.9059C46.4317 28.8071 46.7529 28.7082 47.1976 28.6094C47.2964 28.6094 47.3952 28.6094 47.494 28.6094C47.5929 28.6094 47.7411 28.5847 47.9387 28.5353L48.1611 28.3129C48.2105 28.3129 48.2352 28.3377 48.2352 28.3871H48.3093C48.1117 28.3871 48.4576 28.1894 49.347 27.7941C49.3964 27.8435 49.4211 27.9177 49.4211 28.0165C49.4211 28.1153 49.4458 28.2388 49.4952 28.3871C49.347 28.3871 49.2482 28.4859 49.1987 28.6835C48.7046 28.7329 48.3587 28.9306 48.1611 29.2765L47.0493 29.7212C46.9505 29.7212 46.827 29.7212 46.6787 29.7212C46.5799 29.7212 46.4317 29.7459 46.234 29.7953L45.567 30.1659C45.5176 30.1659 45.4682 30.1412 45.4187 30.0918C45.3693 30.0424 45.3199 30.0177 45.2705 30.0177C45.3199 30.0177 45.1717 30.0918 44.8258 30.24C44.5293 30.3882 44.2576 30.4624 44.0105 30.4624H43.9364C43.9364 30.4129 43.9117 30.3882 43.8623 30.3882L43.6399 30.6106C43.4423 30.66 43.1705 30.6847 42.8246 30.6847C42.5282 30.6847 42.1823 30.7094 41.787 30.7588C41.787 30.8082 41.7623 30.8577 41.7129 30.9071C41.8117 30.9071 41.787 30.9318 41.6387 30.9812C41.5399 30.9812 41.367 31.0059 41.1199 31.0553C40.9717 31.0553 40.774 31.0553 40.527 31.0553C40.2799 31.0553 39.9835 31.08 39.6376 31.1294C39.5882 31.1294 39.514 31.1788 39.4152 31.2777L40.3787 32.3894V32.6118C40.3787 32.6118 40.4035 32.6365 40.4529 32.6859C40.5023 32.7353 40.6505 32.9577 40.8976 33.3529C41.0458 33.6494 41.0458 33.8224 40.8976 33.8718C41.0458 34.3659 41.1199 34.5388 41.1199 34.3906C41.1199 34.44 41.0952 34.5635 41.0458 34.7612C40.9964 34.9588 40.9223 35.2306 40.8235 35.5765C40.7246 35.7247 40.6258 35.9224 40.527 36.1694C40.4282 36.3671 40.3293 36.6141 40.2305 36.9106C40.0823 37.1082 39.8599 37.38 39.5635 37.7259C39.267 38.0224 38.8717 38.4177 38.3776 38.9118C38.3776 38.9612 38.254 39.06 38.007 39.2082C37.8093 39.3071 37.587 39.5294 37.3399 39.8753C37.0435 40.0235 36.6729 40.1965 36.2282 40.3941C35.8329 40.5424 35.3635 40.74 34.8199 40.9871C34.6223 41.0365 34.3505 41.1106 34.0046 41.2094C33.7082 41.2588 33.3623 41.3082 32.967 41.3577C32.8187 41.4071 32.6211 41.4812 32.374 41.58C32.127 41.6788 31.8058 41.7282 31.4105 41.7282C30.5705 41.7282 30.0764 41.7035 29.9282 41.6541L29.1129 41.8024ZM29.7799 41.0612C29.7799 41.1106 29.7799 41.1106 29.7799 41.0612C29.8293 40.9624 29.8787 40.9129 29.9282 40.9129L30.5211 41.0612C30.8176 41.0612 30.9905 41.0365 31.0399 40.9871C31.1387 40.8882 31.2623 40.8388 31.4105 40.8388H31.707C31.8552 40.8882 31.9787 40.9129 32.0776 40.9129C32.127 40.9129 32.2011 40.8882 32.2999 40.8388C32.3987 40.74 32.4729 40.6906 32.5223 40.6906C32.6211 40.6906 32.6705 40.7153 32.6705 40.7647L32.8929 40.6165H33.8564C33.8564 40.6165 34.0046 40.5918 34.3011 40.5424C34.647 40.4435 34.9682 40.2953 35.2646 40.0977L35.8576 39.7271C36.2529 39.48 36.5987 39.3071 36.8952 39.2082C37.1917 39.06 37.414 38.9365 37.5623 38.8377C38.3035 38.2941 38.7976 37.7012 39.0446 37.0588C39.0446 36.9106 39.0693 36.7377 39.1187 36.54C39.2176 36.2929 39.267 36.1447 39.267 36.0953C39.267 35.8977 39.1682 35.7 38.9705 35.5024C38.9705 35.4035 38.9705 35.2553 38.9705 35.0577C39.0199 34.86 39.0693 34.6377 39.1187 34.3906L38.9705 34.2424C38.8717 33.8471 38.6987 33.4518 38.4517 33.0565C38.4023 33.0565 38.3529 33.0318 38.3035 32.9824C38.254 32.9329 38.2046 32.7106 38.1552 32.3153L37.7846 32.0188V31.6482H36.9693C36.9199 31.6482 36.8705 31.6235 36.8211 31.5741C36.7717 31.5247 36.7223 31.5 36.6729 31.5H36.3023C35.7587 31.7471 35.487 31.8953 35.487 31.9447H35.5611C35.5611 31.9447 35.5364 31.9447 35.487 31.9447L34.894 31.7224C34.894 31.7224 34.7705 31.7718 34.5235 31.8706C34.2764 31.9694 34.0046 32.0188 33.7082 32.0188C33.6587 32.0188 33.6093 31.9941 33.5599 31.9447C33.5105 31.8459 33.4364 31.7965 33.3376 31.7965C33.2882 31.7965 33.1893 31.8706 33.0411 32.0188C32.8929 32.1177 32.794 32.1671 32.7446 32.1671C32.6458 32.1671 32.5717 32.1424 32.5223 32.0929C32.5223 32.0435 32.4976 32.0188 32.4482 32.0188C32.3987 32.0188 32.3246 32.0435 32.2258 32.0929C32.127 32.1424 32.0529 32.1671 32.0035 32.1671C32.0035 32.1671 31.8305 32.0682 31.4846 31.8706C31.4846 32.2659 31.3364 32.4635 31.0399 32.4635C30.8423 32.4635 30.7435 32.2906 30.7435 31.9447C30.5458 31.9941 30.3729 32.0682 30.2246 32.1671C30.1258 32.2165 30.0023 32.2412 29.854 32.2412H29.6317L29.4093 32.0188C29.3599 32.1671 29.2364 32.2412 29.0387 32.2412C28.8905 32.2412 28.7917 32.2165 28.7423 32.1671V31.9447C28.6929 31.9941 28.6187 32.0435 28.5199 32.0929C28.4211 32.1424 28.3223 32.1918 28.2235 32.2412V32.3153C28.2235 32.5624 28.0752 32.7847 27.7787 32.9824C27.4823 33.18 27.0623 33.4271 26.5187 33.7235C26.5187 33.7729 26.5187 33.8471 26.5187 33.9459C26.5682 33.9953 26.5929 34.0447 26.5929 34.0941C26.5929 34.5882 26.3705 34.9094 25.9258 35.0577L25.2587 37.0588C25.3576 37.0588 25.407 37.0835 25.407 37.1329L26.2223 39.5788C26.2717 39.5788 26.3211 39.5541 26.3705 39.5047H26.5929C26.7411 39.5047 26.8646 39.6777 26.9635 40.0235C27.0623 40.32 27.2105 40.4682 27.4082 40.4682C27.4576 40.4682 27.4823 40.4435 27.4823 40.3941H27.5564C27.507 40.3941 27.7046 40.4929 28.1493 40.6906C28.1493 40.6906 28.2976 40.74 28.594 40.8388L28.7423 40.6906C29.434 40.8388 29.7799 40.9624 29.7799 41.0612ZM71.7988 20.0859L71.2059 19.9377C71.2553 19.9377 71.3541 19.8388 71.5024 19.6412C71.6506 19.3941 71.7988 19.2953 71.9471 19.3447C72.0459 19.2459 72.0953 19.3447 72.0953 19.6412H72.3918C72.3424 19.74 72.2435 19.8388 72.0953 19.9377C71.9471 20.0365 71.8483 20.0859 71.7988 20.0859ZM50.1565 45.9529C50.1071 45.8541 50.1071 45.78 50.1565 45.7306H50.0824C49.9835 45.5329 49.9341 45.3353 49.9341 45.1377C49.9341 44.8906 49.9588 44.7918 50.0083 44.8412V44.6929C50.1071 44.4953 50.1812 44.2235 50.2306 43.8777C50.3294 43.5812 50.4283 43.2106 50.5271 42.7659C50.4283 42.8647 50.3541 42.9141 50.3047 42.9141C50.3541 42.9141 50.28 42.84 50.0824 42.6918C49.8847 42.5929 49.7859 42.5435 49.7859 42.5435L50.0824 41.58C50.0824 41.5306 50.0577 41.4812 50.0083 41.4318C49.9588 41.3824 49.9341 41.3329 49.9341 41.2835L49.6377 38.8377L49.3412 39.06V38.4671L48.8965 36.9106C48.9459 37.0588 49.02 37.2565 49.1188 37.5035C49.2177 37.7012 49.3412 37.9729 49.4894 38.3188C49.5388 38.2694 49.5635 38.1459 49.5635 37.9482C49.5635 37.5529 49.4647 37.1824 49.2671 36.8365L49.193 36.3918C49.0941 36.3918 48.9953 36.54 48.8965 36.8365C48.8471 36.2929 48.6988 35.7 48.4518 35.0577C48.5012 35.0082 48.5259 34.8847 48.5259 34.6871C48.2294 34.1929 48.1306 33.8224 48.2294 33.5753C48.18 33.18 48.1306 32.9082 48.0812 32.76C48.0812 32.5624 48.0812 32.4635 48.0812 32.4635C47.8341 32.2165 47.76 32.0435 47.8588 31.9447V31.5C47.7106 31.4012 47.6612 31.3024 47.7106 31.2035C47.3647 30.7094 47.2659 30.0918 47.4141 29.3506C47.3153 29.3012 47.1177 29.0294 46.8212 28.5353C46.5247 28.0412 46.253 27.7941 46.0059 27.7941C45.9565 27.7941 45.9318 27.8435 45.9318 27.9424C45.9318 28.0412 45.8824 28.0906 45.7835 28.0906H45.7094C45.7094 28.0412 45.6847 28.0165 45.6353 28.0165C45.5859 28.0165 45.4377 28.2388 45.1906 28.6835C44.9435 29.1282 44.573 29.7459 44.0788 30.5365C44.0294 30.4871 43.98 30.4624 43.9306 30.4624C43.8812 30.4624 43.8071 30.4377 43.7082 30.3882C43.8071 30.0424 43.98 29.5977 44.2271 29.0541C44.4741 28.4612 44.9435 27.6212 45.6353 26.5341C46.0306 25.9412 46.4259 25.5953 46.8212 25.4965H47.0435C47.093 25.4471 47.1671 25.4224 47.2659 25.4224C47.4141 25.4224 47.6118 25.5212 47.8588 25.7188H48.0812C48.0812 25.5706 48.1553 25.4224 48.3035 25.2741C48.5012 25.3729 48.6494 25.4965 48.7483 25.6447C48.8965 25.7929 49.02 25.9165 49.1188 26.0153C49.7612 27.4482 50.5024 28.8318 51.3424 30.1659C51.3424 31.0059 51.4165 31.7718 51.5647 32.4635C51.6141 32.5624 51.6635 32.6859 51.713 32.8341C51.8118 32.9824 51.8612 33.0812 51.8612 33.1306L51.6388 33.3529C51.7871 33.7977 51.8365 34.1929 51.7871 34.5388C51.7871 34.5882 51.7377 34.6624 51.6388 34.7612C51.5894 34.86 51.5647 34.9341 51.5647 34.9835C51.5647 35.0824 51.6141 35.1812 51.713 35.28C51.6635 35.4282 51.6388 35.7 51.6388 36.0953L51.8612 37.3553V38.6894L52.0835 38.8377C52.0835 38.5906 52.1577 38.2447 52.3059 37.8C52.9977 37.4047 53.22 36.8612 52.973 36.1694C53.0718 36.1694 53.1706 36.0953 53.2694 35.9471C53.3683 35.7988 53.6153 35.28 54.0106 34.3906L54.6035 33.7977C54.5541 33.8471 54.5294 33.7482 54.5294 33.5012C54.8753 33.0565 54.9494 32.7353 54.7518 32.5377C54.8012 32.5871 54.8506 32.6118 54.9 32.6118C54.9988 32.5129 54.9988 32.4141 54.9 32.3153C54.9 32.3153 54.9247 32.2906 54.9741 32.2412C55.073 32.1424 55.2212 32.0435 55.4188 31.9447C55.4188 31.7965 55.3941 31.6977 55.3447 31.6482L55.9377 30.9071C55.9871 30.8082 56.0365 30.6847 56.0859 30.5365C56.1847 30.3882 56.2588 30.1906 56.3083 29.9435C56.5059 29.5482 56.7777 29.1282 57.1235 28.6835C57.4694 28.1894 57.9141 27.6706 58.4577 27.1271C58.6059 27.0777 58.7047 26.88 58.7541 26.5341C58.8035 26.4847 58.9271 26.4353 59.1247 26.3859C59.2235 26.2377 59.3471 26.0894 59.4953 25.9412C59.693 25.7435 59.8906 25.5459 60.0883 25.3482C60.1377 25.2 60.3106 25.0271 60.6071 24.8294L61.1259 24.4588C61.1753 24.4094 61.2 24.3353 61.2 24.2365C61.4471 24.0388 61.6694 23.8165 61.8671 23.5694C62.0647 23.3224 62.2624 23.0506 62.46 22.7541C62.5094 22.7541 62.633 22.8529 62.8306 23.0506C62.88 23.0012 62.9047 22.9024 62.9047 22.7541C62.9047 22.8035 62.9541 22.8282 63.053 22.8282C62.9541 22.8282 63.1518 22.5812 63.6459 22.0871C63.893 22.0377 64.2141 21.8153 64.6094 21.42C65.2518 21.0741 65.6965 20.9012 65.9435 20.9012C65.993 20.9012 66.0177 20.9259 66.0177 20.9753H66.0918C66.0918 20.9753 66.1906 20.9012 66.3883 20.7529C66.5859 20.6047 66.7588 20.4565 66.9071 20.3082L67.0553 20.4565C67.0553 20.4071 67.08 20.3577 67.1294 20.3082C67.1294 20.3577 67.1788 20.3824 67.2777 20.3824C67.6235 20.3824 68.1177 20.16 68.76 19.7153C68.8094 19.7153 68.8094 19.74 68.76 19.7894C68.76 19.8388 68.7847 19.8635 68.8341 19.8635C68.6859 19.8635 68.9824 19.7894 69.7235 19.6412H70.3906C70.44 19.5918 70.4894 19.5671 70.5388 19.5671C70.6377 19.5671 70.7859 19.6659 70.9835 19.8635C70.7859 19.9624 70.6871 20.0365 70.6871 20.0859C70.6377 20.0859 70.6377 20.0859 70.6871 20.0859L70.4647 19.8635C70.1683 20.16 69.9953 20.3082 69.9459 20.3082C69.8965 20.3082 69.8718 20.3329 69.8718 20.3824H69.7235C69.7235 20.3329 69.6988 20.3082 69.6494 20.3082C69.4518 20.3082 69.1553 20.4071 68.76 20.6047C68.4141 20.8024 68.1177 20.9012 67.8706 20.9012L67.7965 20.9753V21.2718C67.8953 21.2718 68.0435 21.3706 68.2412 21.5682C68.2412 21.6671 68.2659 21.7659 68.3153 21.8647H68.093C68.0435 21.9141 68.0188 21.9882 68.0188 22.0871C68.0188 22.1365 67.8459 22.1859 67.5 22.2353C67.4506 22.2847 67.3518 22.3835 67.2035 22.5318C67.0553 22.6306 66.8824 22.68 66.6847 22.68C66.6353 22.68 66.5612 22.6553 66.4624 22.6059C66.413 22.5565 66.3635 22.5318 66.3141 22.5318C66.0671 22.5318 65.7459 22.68 65.3506 22.9765C65.2518 23.0753 65.2765 23.1494 65.4247 23.1988C65.2765 23.3471 65.2024 23.4459 65.2024 23.4953C65.1035 23.3471 65.0047 23.3224 64.9059 23.4212C65.0541 23.4706 65.1282 23.5694 65.1282 23.7177C65.1282 23.9153 64.8071 24.1624 64.1647 24.4588C64.1153 24.8047 63.9177 25.0518 63.5718 25.2C63.3741 25.0024 63.2506 24.8541 63.2012 24.7553C63.1518 24.8047 63.0283 24.8541 62.8306 24.9035C62.8306 25.0024 62.9541 25.1012 63.2012 25.2C62.7071 25.6941 62.3365 26.0647 62.0894 26.3118C61.8918 26.5588 61.793 26.6824 61.793 26.6824C61.6941 26.6824 61.6447 26.6577 61.6447 26.6082C61.6447 26.5588 61.62 26.5341 61.5706 26.5341L61.4965 26.6082L61.2 27.1271C61.0024 27.1271 60.7553 27.3494 60.4588 27.7941C60.2118 28.2388 60.0388 28.4612 59.94 28.4612H59.8659C59.8659 28.4118 59.8412 28.3871 59.7918 28.3871C59.6435 28.3871 59.3718 28.7329 58.9765 29.4247L58.4577 29.7953C58.0624 30.0918 57.84 30.4871 57.7906 30.9812L57.6424 30.8329H57.42C57.4694 30.8329 57.4941 30.8577 57.4941 30.9071C57.4941 31.0059 57.3459 31.2282 57.0494 31.5741C56.753 31.8706 56.58 32.1424 56.5306 32.3894C56.4318 32.5871 56.333 32.76 56.2341 32.9082C56.1353 33.0565 56.0612 33.2047 56.0118 33.3529C56.0118 33.3529 55.9377 33.4024 55.7894 33.5012C55.6906 33.5506 55.5918 33.6988 55.493 33.9459V34.4647C55.2953 34.4647 55.1471 34.5882 55.0483 34.8353C54.9988 35.0824 54.9247 35.3047 54.8259 35.5024C54.48 35.8482 54.1341 36.2929 53.7882 36.8365V37.5035C52.8988 38.4424 52.4541 39.2082 52.4541 39.8012C52.4541 39.8506 52.5035 40.0482 52.6024 40.3941C52.7012 40.6906 52.7506 40.8882 52.7506 40.9871C52.7506 41.58 52.7259 41.8271 52.6765 41.7282L51.713 41.9506C51.6141 42.2471 51.4906 42.4694 51.3424 42.6177C51.293 43.1118 51.12 43.5565 50.8235 43.9518C50.5765 44.3965 50.3541 45.0635 50.1565 45.9529ZM63.0136 42.3953C62.9642 42.3459 62.89 42.2718 62.7912 42.1729C62.7418 42.0741 62.6924 42.0247 62.643 42.0247H62.5689C62.5689 42.0741 62.5442 42.0988 62.4948 42.0988C62.3959 42.0988 62.2971 41.8765 62.1983 41.4318C62.1489 41.3824 61.9759 41.3082 61.6795 41.2094C61.5312 40.6659 61.3583 40.3694 61.1606 40.32V38.3188L61.7536 37.6518C61.803 37.6024 61.7783 37.4294 61.6795 37.1329C61.7289 37.0341 61.7783 36.9353 61.8277 36.8365C61.8771 36.7377 61.9512 36.6388 62.05 36.54C62.05 36.3918 62.0253 36.2188 61.9759 36.0212C62.0748 35.7247 62.223 35.5024 62.4206 35.3541C62.4206 35.0577 62.5195 34.7859 62.7171 34.5388C62.8159 34.5388 63.0877 34.2424 63.5324 33.6494L64.2736 32.5377C64.4218 32.4388 64.7183 32.1671 65.163 31.7224V31.4259C65.3112 31.3271 65.4595 31.1788 65.6077 30.9812C65.9536 30.9318 66.2006 30.7835 66.3489 30.5365C66.3489 30.4871 66.3489 30.4129 66.3489 30.3141C66.3489 30.2153 66.3736 30.1165 66.423 30.0177C66.5218 29.9682 66.6206 29.9435 66.7195 29.9435C66.8183 29.9435 66.9418 29.9188 67.09 29.8694C67.1889 29.5729 67.3124 29.3753 67.4606 29.2765C68.103 29.2271 68.5724 28.8812 68.8689 28.2388C68.9183 28.2388 69.0171 28.1894 69.1653 28.0906C69.363 27.9424 69.4865 27.8682 69.5359 27.8682C69.4865 27.9177 69.5606 27.9671 69.7583 28.0165C69.8571 27.9177 69.9065 27.8435 69.9065 27.7941C70.1536 27.6459 70.3759 27.5718 70.5736 27.5718C70.8206 27.2753 70.9442 27.1271 70.9442 27.1271C70.9936 27.1271 71.0183 27.1518 71.0183 27.2012C71.0677 27.2506 71.1171 27.2753 71.1665 27.2753C71.2653 27.2753 71.4383 27.2259 71.6853 27.1271C71.9818 26.9788 72.1795 26.9047 72.2783 26.9047H72.3524C72.303 26.9541 72.3277 26.9788 72.4265 26.9788C72.4759 26.9788 72.5253 26.9541 72.5748 26.9047C72.6736 26.8059 72.7477 26.7565 72.7971 26.7565C72.8959 26.7565 72.9948 26.8059 73.0936 26.9047C73.1924 26.9541 73.2665 26.9788 73.3159 26.9788C73.3653 26.9788 73.39 26.9541 73.39 26.9047C73.4395 26.8553 73.5136 26.8306 73.6124 26.8306C73.5136 26.8306 73.5877 26.88 73.8348 26.9788C73.8842 26.7812 74.0077 26.6824 74.2053 26.6824C74.3042 26.6824 74.3536 26.7318 74.3536 26.8306C74.403 26.88 74.4771 26.9047 74.5759 26.9047C74.6253 26.9047 74.65 26.88 74.65 26.8306H74.7983C74.8971 26.8306 75.0948 27.0282 75.3912 27.4235C75.49 27.3247 75.5395 27.2753 75.5395 27.2753C75.8853 27.5224 76.083 27.72 76.1324 27.8682V28.6094L75.9842 28.4612C75.6877 28.56 75.3912 28.6094 75.0948 28.6094C75.0453 28.6094 74.9959 28.5847 74.9465 28.5353C74.9465 28.4859 74.8971 28.4612 74.7983 28.4612C74.7489 28.4612 74.6748 28.4859 74.5759 28.5353C74.5265 28.5847 74.4771 28.6094 74.4277 28.6094C74.3289 28.6094 74.23 28.5847 74.1312 28.5353C74.0818 28.4859 74.0324 28.4612 73.983 28.4612C73.9336 28.4612 73.9089 28.4859 73.9089 28.5353C73.9089 28.5847 73.8595 28.6094 73.7606 28.6094H73.6865C73.7359 28.56 73.7112 28.5353 73.6124 28.5353C73.563 28.5353 73.2665 28.6588 72.723 28.9059C72.2289 29.1529 71.9571 29.2765 71.9077 29.2765C71.8583 29.2765 71.7842 29.2024 71.6853 29.0541L70.203 29.7212L69.6842 29.5729C69.6348 29.5729 69.5112 29.6718 69.3136 29.8694C69.1159 30.0671 68.9677 30.1659 68.8689 30.1659C68.8195 30.1659 68.7948 30.1412 68.7948 30.0918H68.7206C68.523 30.0918 68.3253 30.2153 68.1277 30.4624C67.9795 30.66 67.7324 30.8082 67.3865 30.9071C67.3371 30.9565 67.3371 31.0553 67.3865 31.2035C67.1395 31.7471 66.8183 32.0929 66.423 32.2412C66.3736 32.2906 66.3489 32.3894 66.3489 32.5377H65.83C65.7806 32.5871 65.7559 32.76 65.7559 33.0565C65.7559 33.0565 65.7065 33.0565 65.6077 33.0565C65.5583 33.0565 65.4842 33.0318 65.3853 32.9824C65.2371 33.2294 65.2124 33.4765 65.3112 33.7235H64.57C64.4712 33.9212 64.3477 34.1682 64.1995 34.4647C64.0512 34.7118 63.903 35.0329 63.7548 35.4282C63.7053 35.5765 63.6065 35.7741 63.4583 36.0212C63.3595 36.2188 63.2606 36.4659 63.1618 36.7624C62.8653 37.1082 62.6183 37.5282 62.4206 38.0224V38.6894C62.4206 38.7388 62.3959 38.8377 62.3465 38.9859C62.2971 39.1341 62.2724 39.2577 62.2724 39.3565C62.5195 39.6035 62.7665 39.7271 63.0136 39.7271C63.1618 39.7271 63.3348 39.7024 63.5324 39.6529C63.7795 39.5541 64.0018 39.3071 64.1995 38.9118L64.4218 39.06C64.8171 38.9118 65.2618 38.64 65.7559 38.2447C65.8053 38.1953 65.9289 38.1459 66.1265 38.0965C66.3242 38.0471 66.423 37.9235 66.423 37.7259C66.4724 37.7259 66.5218 37.7506 66.5712 37.8L66.8677 37.2812C67.4112 37.1824 67.7077 36.8859 67.7571 36.3918C67.8559 36.3918 67.93 36.4165 67.9795 36.4659L68.4983 36.0212C68.4983 35.9224 68.523 35.8235 68.5724 35.7247C68.6218 35.7247 68.6712 35.7247 68.7206 35.7247C68.77 35.6753 68.8442 35.6259 68.943 35.5765L69.3877 34.7612C69.5359 34.6129 69.783 34.5141 70.1289 34.4647C70.2771 34.3659 70.4006 34.2424 70.4995 34.0941C70.6477 33.9459 70.7712 33.8224 70.87 33.7235C70.8206 33.6247 70.7712 33.5259 70.7218 33.4271C70.6724 33.3282 70.5983 33.2294 70.4995 33.1306C70.4006 32.9824 70.45 32.8588 70.6477 32.76C70.5489 32.8094 70.4995 32.76 70.4995 32.6118V32.1671C70.6477 32.0682 70.8206 31.9694 71.0183 31.8706C71.2653 31.7718 71.5124 31.6235 71.7595 31.4259C71.9571 31.3271 72.0806 31.2777 72.13 31.2777C71.9818 31.2777 72.0312 31.3271 72.2783 31.4259C72.3771 31.1788 72.5006 30.9071 72.6489 30.6106C72.7971 30.3141 72.9453 29.9682 73.0936 29.5729L73.6865 29.2765C73.6865 29.2765 73.7359 29.4247 73.8348 29.7212C73.4395 30.2647 73.2418 30.6847 73.2418 30.9812C73.2418 31.1294 73.4889 31.2777 73.983 31.4259C73.983 31.4259 73.983 31.4506 73.983 31.5C73.983 31.5 73.9583 31.5247 73.9089 31.5741C74.1065 31.7224 74.2548 31.8706 74.3536 32.0188C74.5018 32.1671 74.6006 32.2906 74.65 32.3894C74.3042 32.8835 74.1312 33.3529 74.1312 33.7977L74.2795 33.9459C74.23 33.9953 74.2053 34.1929 74.2053 34.5388C74.2548 34.8353 74.3042 35.1565 74.3536 35.5024C74.4524 35.7988 74.5512 36.1447 74.65 36.54L75.1689 37.2812V37.5035C75.1689 38.1953 75.4159 38.7882 75.91 39.2824L76.1324 39.1341V39.3565C76.4289 39.4553 76.75 39.6777 77.0959 40.0235H77.9112C78.0595 40.2212 78.2077 40.32 78.3559 40.32C79.1465 40.32 79.5418 40.1224 79.5418 39.7271C79.5418 39.7271 79.5912 39.7765 79.69 39.8753C80.2336 39.6282 81.0489 38.8129 82.1359 37.4294C82.8771 36.54 83.2971 36.12 83.3959 36.1694L83.6924 36.2435V36.54L83.7665 36.6141C83.7665 36.6141 83.5689 36.8859 83.1736 37.4294C83.1736 37.6271 82.9759 37.8741 82.5806 38.1706C82.6795 38.22 82.6795 38.2941 82.5806 38.3929L82.1359 38.6894L82.2842 38.9118C81.79 39.06 81.3948 39.2577 81.0983 39.5047C80.8018 39.7518 80.6783 39.9247 80.7277 40.0235C80.6289 40.0235 80.4559 40.1718 80.2089 40.4682C80.0112 40.4682 79.9124 40.5671 79.9124 40.7647C79.8136 40.6659 79.7642 40.6165 79.7642 40.6165L79.5418 40.7647C79.5418 40.7647 79.4924 40.7894 79.3936 40.8388C79.3442 40.8882 79.27 40.9624 79.1712 41.0612C79.1218 41.0612 79.0477 41.0612 78.9489 41.0612C78.85 41.0612 78.7512 41.0859 78.6524 41.1353L78.5042 41.3577H78.1336C78.0842 41.3082 78.0348 41.2835 77.9853 41.2835C77.5406 41.2835 77.1948 41.4071 76.9477 41.6541V41.3577H75.9842V41.0612C75.8853 41.16 75.8112 41.2094 75.7618 41.2094C75.663 41.2094 75.5148 41.1353 75.3171 40.9871C75.1689 40.7894 74.9959 40.7153 74.7983 40.7647C74.5512 40.3694 74.2548 39.9741 73.9089 39.5788C73.6124 39.1341 73.4148 38.9612 73.3159 39.06C73.3159 39.0106 73.3406 38.9612 73.39 38.9118C73.2418 38.7635 73.143 38.5412 73.0936 38.2447C72.7477 37.8494 72.0806 36.6388 71.0924 34.6129C70.8948 34.8106 70.6477 35.0824 70.3512 35.4282C70.0548 35.7741 69.7089 36.1447 69.3136 36.54C69.2642 36.6388 69.2148 36.7624 69.1653 36.9106C69.1159 37.0094 69.0665 37.1577 69.0171 37.3553L68.4983 37.6518C68.4983 37.7506 68.4736 37.8741 68.4242 38.0224C68.4242 38.1212 68.3995 38.2694 68.35 38.4671C68.3006 38.4671 68.1524 38.5659 67.9053 38.7635C67.7077 38.9612 67.51 39.06 67.3124 39.06C67.263 39.06 67.1889 39.0106 67.09 38.9118C66.9912 39.0106 66.8677 39.1588 66.7195 39.3565C66.5712 39.5047 66.3983 39.7024 66.2006 39.9494C66.25 39.9988 66.3983 40.0235 66.6453 40.0235V40.32C66.6453 40.3694 66.4971 40.5424 66.2006 40.8388L66.3489 40.9871C66.2006 41.0859 65.8795 41.3824 65.3853 41.8765C65.3359 41.8765 65.2371 41.8765 65.0889 41.8765C64.99 41.8765 64.8665 41.9012 64.7183 41.9506C64.0759 42.1977 63.8783 42.3212 64.1253 42.3212C63.9771 42.3212 63.8042 42.2965 63.6065 42.2471H63.1618C63.063 42.2471 63.0136 42.2965 63.0136 42.3953ZM99.099 41.7282C98.9508 41.7282 98.432 41.5553 97.5426 41.2094H97.4684C97.4684 41.2588 97.4437 41.2835 97.3943 41.2835C96.2084 41.1847 95.5908 40.2706 95.5414 38.5412C95.4426 38.4424 95.3931 38.3435 95.3931 38.2447C95.3931 38.1459 95.4178 37.9977 95.4673 37.8C95.5661 37.6024 95.6649 37.3306 95.7637 36.9847L95.6155 36.8365C95.8626 36.6388 96.0355 36.3671 96.1343 36.0212C96.1343 35.9224 96.0849 35.8235 95.9861 35.7247C96.3814 35.6259 96.5296 35.3788 96.4308 34.9835C96.4802 34.9341 96.6284 34.9094 96.8755 34.9094C96.8755 34.8106 96.8755 34.7118 96.8755 34.6129C96.8755 34.5141 96.9002 34.3906 96.9496 34.2424H97.0978C97.5426 34.2424 97.8143 33.9706 97.9131 33.4271C98.2096 33.3282 98.3826 33.18 98.432 32.9824L98.8026 32.9082C98.9014 32.6118 99.1978 32.1671 99.692 31.5741H100.063C100.655 31.08 101.001 30.8329 101.1 30.8329C101.199 30.7835 101.248 30.7094 101.248 30.6106C101.495 30.5118 101.718 30.3141 101.915 30.0177C101.965 29.9682 102.064 29.9435 102.212 29.9435V29.7212C102.014 29.6718 101.792 29.3506 101.545 28.7577C101.347 28.4612 101.1 28.0659 100.804 27.5718C100.557 27.0282 100.26 26.4106 99.9143 25.7188C99.8649 25.5706 99.7661 25.3235 99.6178 24.9777C99.4696 24.5824 99.3955 24.4094 99.3955 24.4588C99.3955 24.4094 99.3955 24.36 99.3955 24.3106C99.4449 24.2118 99.4696 24.1129 99.4696 24.0141V23.94L99.0249 23.0506V22.5318L98.5061 21.7906C98.4567 21.3953 98.3826 20.9506 98.2837 20.4565C98.2343 19.9129 98.1355 19.3447 97.9873 18.7518L98.0614 18.6035C98.0614 18.3071 97.9873 17.7882 97.839 17.0471V16.6765L97.7649 16.7506C97.7155 16.7012 97.6908 16.6518 97.6908 16.6024L97.839 14.0824C97.9378 13.9835 97.9873 13.8847 97.9873 13.7859L97.9131 13.5635C97.9131 13.3659 98.0367 12.9706 98.2837 12.3777L98.2096 12.1553L98.5061 11.7106C98.4073 11.6118 98.3578 11.4882 98.3578 11.34V11.2659L98.5802 10.9694V10.7471C98.8273 10.3518 99.0249 9.95648 99.1731 9.56118C99.3214 9.11648 99.6178 8.59765 100.063 8.00471C100.161 8.00471 100.235 7.98001 100.285 7.93059C100.285 7.68353 100.804 7.01648 101.841 5.92942C102.039 5.83059 102.261 5.73177 102.508 5.63295C102.755 5.48471 103.027 5.31177 103.324 5.11412C103.571 5.11412 104.164 4.89177 105.103 4.44706L105.251 4.66942C105.448 4.47177 106.288 4.34824 107.771 4.29883L107.919 4.44706C109.401 4.54589 110.414 4.89177 110.958 5.48471H111.477C111.724 5.78118 112.218 6.12706 112.959 6.52236C113.157 6.86824 113.428 7.04118 113.774 7.04118C113.774 7.48589 113.972 7.75765 114.367 7.85648L114.293 8.00471C114.293 8.05412 114.491 8.27648 114.886 8.67177C114.935 8.72118 115.01 8.89412 115.108 9.19059C115.158 9.24001 115.232 9.26471 115.331 9.26471C115.38 9.51177 115.578 9.88236 115.924 10.3765C116.121 10.92 116.27 11.4388 116.368 11.9329C116.517 12.4271 116.64 12.9212 116.739 13.4153V14.8235C116.739 14.9224 116.764 15.12 116.813 15.4165C116.912 15.7129 116.961 15.9353 116.961 16.0835L116.887 18.8259L116.739 18.9C116.64 19.1965 116.541 19.6165 116.443 20.16C116.393 20.7035 116.27 21.4941 116.072 22.5318L115.627 23.7918C115.627 24.1871 115.528 24.5577 115.331 24.9035C115.281 24.9529 115.232 25.1012 115.183 25.3482C115.183 25.5459 115.133 25.8177 115.034 26.1635C114.935 26.2624 114.861 26.46 114.812 26.7565C114.763 27.0529 114.59 27.2753 114.293 27.4235C114.244 27.7694 114.194 28.0165 114.145 28.1647C114.145 28.3129 114.145 28.3624 114.145 28.3129C114.145 28.3129 113.947 28.7577 113.552 29.6471C113.354 29.7459 113.157 29.8941 112.959 30.0918C112.959 30.5365 112.737 31.0306 112.292 31.5741C111.897 32.0682 111.501 32.5377 111.106 32.9824C110.81 33.2294 110.439 33.7729 109.994 34.6129C109.945 34.6624 109.895 34.7118 109.846 34.7612C109.797 34.8106 109.747 34.8847 109.698 34.9835L109.846 35.5024H109.401L109.327 35.5765V35.7247C109.525 35.8729 109.772 36.0212 110.068 36.1694C110.414 36.3177 110.785 36.4906 111.18 36.6882L111.032 36.8365C111.23 36.9847 111.501 37.1824 111.847 37.4294H111.921C111.921 37.38 111.946 37.3553 111.995 37.3553C112.045 37.3553 112.094 37.4294 112.144 37.5777C112.193 37.6765 112.243 37.7259 112.292 37.7259C112.341 37.7259 112.366 37.7012 112.366 37.6518H112.44L112.885 38.0224C112.984 38.0224 113.083 38.0471 113.181 38.0965H113.478C113.626 38.0965 113.675 38.0471 113.626 37.9482C113.774 38.1953 113.947 38.3188 114.145 38.3188C114.194 38.2694 114.268 38.2447 114.367 38.2447C114.466 38.2447 114.565 38.22 114.664 38.1706L115.257 38.4671C115.355 38.4671 115.528 38.4177 115.775 38.3188C116.023 38.1706 116.171 38.0965 116.22 38.0965L116.443 38.2447C116.591 38.2447 116.714 38.1953 116.813 38.0965H116.887C116.986 38.0965 117.085 38.0471 117.184 37.9482C117.134 37.9977 117.258 38.0224 117.554 38.0224C117.95 38.0224 118.37 37.7259 118.814 37.1329C118.864 37.1824 118.913 37.2071 118.963 37.2071C119.061 37.2071 119.135 37.1824 119.185 37.1329H119.481V37.5035C119.086 37.7506 118.839 37.9977 118.74 38.2447L118.444 38.3188C117.357 39.1588 116.171 39.5541 114.886 39.5047C114.886 39.5047 114.738 39.4553 114.441 39.3565L113.478 39.5788C113.28 39.5788 112.984 39.48 112.588 39.2824C112.193 39.0353 111.847 38.9365 111.551 38.9859C111.551 38.8377 111.427 38.7141 111.18 38.6153C110.983 38.4177 110.785 38.2447 110.587 38.0965C110.439 37.9482 110.291 37.8247 110.143 37.7259C110.093 37.6765 109.92 37.6024 109.624 37.5035L108.364 36.54C108.561 36.5894 107.672 37.38 105.695 38.9118C105.399 38.9612 105.028 39.2082 104.584 39.6529C104.485 39.6529 103.793 40.1224 102.508 41.0612C102.41 41.0612 102.138 41.1106 101.693 41.2094C101.298 41.3082 101.001 41.3577 100.804 41.3577H100.655L100.581 41.2835C100.433 41.4318 99.939 41.58 99.099 41.7282ZM108.66 35.0577L109.55 34.3165C109.55 34.2177 109.55 34.1188 109.55 34.02C109.55 33.8718 109.574 33.6988 109.624 33.5012C109.723 32.9577 110.241 32.1671 111.18 31.1294C111.23 31.0306 111.279 30.9318 111.328 30.8329C111.378 30.6847 111.452 30.5365 111.551 30.3882C111.551 30.3882 111.501 30.0918 111.403 29.4988L112.514 28.4612C112.514 28.3624 112.44 28.2141 112.292 28.0165C112.391 27.8682 112.514 27.72 112.663 27.5718C112.811 27.3741 112.984 27.1765 113.181 26.9788L113.552 25.5706C113.503 25.5212 113.478 25.4471 113.478 25.3482C113.478 25.2494 113.453 25.1259 113.404 24.9777L113.552 24.6812V24.5329C113.7 24.1377 113.848 23.5447 113.997 22.7541C113.997 22.7541 113.947 22.6059 113.848 22.3094C113.898 22.1612 113.947 21.9882 113.997 21.7906C114.046 21.5435 114.095 21.2965 114.145 21.0494V19.5671C114.095 19.4682 114.071 19.3447 114.071 19.1965C114.071 18.9988 114.046 18.8012 113.997 18.6035L114.145 17.7882C114.145 17.5906 114.071 17.2694 113.923 16.8247C113.824 16.3306 113.75 15.9847 113.7 15.7871C113.651 15.7377 113.601 15.7129 113.552 15.7129V15.4906C113.552 15.3918 113.552 15.2929 113.552 15.1941C113.552 15.0953 113.527 14.9718 113.478 14.8235C113.478 14.7741 113.527 14.7 113.626 14.6012V14.3788C113.626 13.9835 113.428 13.44 113.033 12.7482L112.663 12.0812V12.0071C112.663 11.8588 112.514 11.5624 112.218 11.1177C112.218 10.7224 112.094 10.3271 111.847 9.93177C111.403 8.44942 110.933 7.70824 110.439 7.70824C110.34 7.70824 110.291 7.73295 110.291 7.78236L110.587 8.59765C110.538 8.64706 110.464 8.67177 110.365 8.67177C110.019 8.3753 109.648 8.05412 109.253 7.70824C108.907 7.36236 108.537 6.99177 108.141 6.59647L107.178 6.07765C107.079 6.07765 106.98 6.12706 106.881 6.22589C106.832 6.07765 106.733 5.92942 106.585 5.78118V5.8553C106.585 5.90471 106.535 5.92942 106.437 5.92942C106.338 5.92942 106.214 5.88001 106.066 5.78118C105.918 5.68236 105.794 5.63295 105.695 5.63295C105.695 5.58353 105.621 5.60824 105.473 5.70706H105.177C104.781 5.70706 104.534 5.60824 104.435 5.41059C104.287 5.46001 104.09 5.55883 103.843 5.70706C103.645 5.80589 103.398 5.90471 103.101 6.00353C103.101 6.10236 102.904 6.22589 102.508 6.37412L100.878 7.93059C100.631 8.67177 100.285 9.14118 99.8402 9.33883C99.8896 9.38824 99.9143 9.48706 99.9143 9.6353C99.7661 9.68471 99.6178 9.88236 99.4696 10.2282L99.6178 10.3765C99.272 10.7224 99.1237 11.0188 99.1731 11.2659C98.8273 12.1553 98.6296 12.6988 98.5802 12.8965C98.5802 13.0941 98.5308 13.2424 98.432 13.3412L98.3578 15.3424C98.4073 15.3424 98.4814 15.3918 98.5802 15.4906C98.5308 15.6388 98.5061 15.9106 98.5061 16.3059V16.9729C98.5061 17.22 98.5061 17.4671 98.5061 17.7141C98.5061 17.9612 98.5308 18.2082 98.5802 18.4553C98.5802 18.5047 98.7037 18.7765 98.9508 19.2706C99.1978 19.7647 99.3214 20.16 99.3214 20.4565C99.272 20.5553 99.2473 20.6788 99.2473 20.8271C99.2473 20.9753 99.2226 21.1729 99.1731 21.42C99.272 21.6177 99.3461 21.84 99.3955 22.0871C99.4449 22.2847 99.4943 22.5071 99.5437 22.7541C99.5437 22.6553 99.6178 22.6059 99.7661 22.6059C100.063 22.6553 100.235 22.8529 100.285 23.1988L100.507 23.4953C100.557 23.9894 100.73 24.4341 101.026 24.8294C101.372 25.2247 101.693 25.62 101.99 26.0153V26.0894C101.99 26.2377 102.014 26.46 102.064 26.7565C102.113 27.0035 102.237 27.3 102.434 27.6459C102.484 27.5965 102.558 27.5718 102.657 27.5718C102.755 27.5718 102.78 27.5965 102.731 27.6459V27.72L102.657 27.7941C102.657 27.8929 102.706 27.9918 102.805 28.0906L102.731 28.2388C102.83 28.3377 102.928 28.5106 103.027 28.7577C103.175 28.9553 103.324 29.1777 103.472 29.4247L103.768 29.4988L103.991 29.3506C103.991 29.4 104.04 29.4247 104.139 29.4247C104.337 29.3259 104.633 29.2024 105.028 29.0541C105.424 28.9059 105.943 28.8318 106.585 28.8318H107.178C107.178 28.8318 107.227 28.8812 107.326 28.98C107.474 28.98 107.548 28.9306 107.548 28.8318H107.993C108.092 28.8318 108.215 28.9553 108.364 29.2024L108.438 28.98C109.08 29.9188 109.401 30.4871 109.401 30.6847L108.957 31.8706H108.66C108.512 31.7224 108.117 31.5988 107.474 31.5C107.03 31.5 106.659 31.5 106.363 31.5C106.066 31.5 105.819 31.5247 105.621 31.5741L105.547 31.5V31.9447L105.77 31.7965C105.868 31.8953 105.893 32.0435 105.844 32.2412C106.041 32.4882 106.288 32.76 106.585 33.0565C106.931 33.3035 107.301 33.5753 107.697 33.8718L107.771 34.2424C107.968 34.4894 108.265 34.6624 108.66 34.7612V35.0577ZM98.8767 40.9129C98.9261 40.9129 99.0249 40.8635 99.1731 40.7647C99.3214 40.6659 99.4449 40.6165 99.5437 40.6165C99.5931 40.6165 99.6673 40.6659 99.7661 40.7647C99.9143 40.8141 100.013 40.8388 100.063 40.8388C100.161 40.6906 100.384 40.5424 100.73 40.3941C100.779 40.4435 100.853 40.4682 100.952 40.4682C101.051 40.4682 101.15 40.4929 101.248 40.5424C101.347 40.5424 101.446 40.4929 101.545 40.3941C101.644 40.2459 101.718 40.1718 101.767 40.1718C101.767 40.2212 101.841 40.2459 101.99 40.2459C102.088 40.2459 102.212 40.1718 102.36 40.0235C102.706 39.9247 103.175 39.6777 103.768 39.2824C104.361 38.8377 104.905 38.5659 105.399 38.4671C105.547 38.1706 105.868 37.7753 106.363 37.2812L106.585 37.4294C106.684 37.1329 107.03 36.7871 107.623 36.3918V35.9471C107.227 35.7 106.906 35.5518 106.659 35.5024C106.61 35.4529 106.585 35.3788 106.585 35.28C106.585 35.1812 106.56 35.0824 106.511 34.9835C106.412 34.9341 106.288 34.86 106.14 34.7612C105.992 34.6624 105.819 34.5635 105.621 34.4647C105.177 33.7729 104.435 32.9577 103.398 32.0188C103.25 32.2165 103.151 32.3153 103.101 32.3153C103.052 32.3153 103.027 32.2906 103.027 32.2412H102.953C102.854 32.2412 102.731 32.2906 102.583 32.3894C102.434 32.4388 102.335 32.4635 102.286 32.4635C102.237 32.6118 102.138 32.6859 101.99 32.6859C101.644 32.7847 101.224 33.0071 100.73 33.3529C100.581 33.5012 100.31 33.7235 99.9143 34.02C99.5684 34.3165 98.9755 34.7612 98.1355 35.3541L97.9131 36.0953L97.6908 36.2435C97.5426 36.2929 97.419 36.4165 97.3202 36.6141C97.2214 36.8118 97.0731 37.0341 96.8755 37.2812L96.579 37.0588V37.3553C96.332 37.5035 96.2578 37.8494 96.3567 38.3929C96.3567 38.4918 96.332 38.5659 96.2826 38.6153L96.8755 40.32H97.172C97.3202 40.32 97.4684 40.3447 97.6167 40.3941H98.0614C98.259 40.5918 98.5308 40.7647 98.8767 40.9129ZM133.404 46.9906C133.157 46.9412 133.009 46.6447 132.959 46.1012C132.91 45.6071 132.86 45.3106 132.811 45.2118V44.5447C132.811 43.7047 132.811 42.9635 132.811 42.3212C132.86 41.6788 132.935 41.1847 133.033 40.8388L133.256 40.0235L133.849 37.6518C133.799 37.6024 133.775 37.5035 133.775 37.3553L133.923 36.2435C133.972 36.1941 134.12 35.7741 134.367 34.9835L134.293 34.9094V34.8353C134.046 34.9341 133.725 35.28 133.33 35.8729C133.231 35.9224 133.107 35.9965 132.959 36.0953C132.86 36.1941 132.737 36.4165 132.589 36.7624L131.477 38.0965C131.427 38.1459 131.329 38.22 131.18 38.3188C131.032 38.4177 130.81 38.6153 130.513 38.9118C130.415 38.9118 130.291 38.9365 130.143 38.9859C129.747 39.3812 129.426 39.6282 129.179 39.7271C129.08 39.9247 128.932 40.1471 128.735 40.3941C128.537 40.6412 128.315 40.8882 128.067 41.1353V40.6906C128.117 40.6412 128.067 40.6165 127.919 40.6165C127.87 40.6165 127.647 40.8388 127.252 41.2835L127.4 41.4318L127.919 40.9871C127.672 41.4812 127.475 41.7777 127.326 41.8765C125.745 43.0129 124.707 43.5812 124.213 43.5812C124.164 43.5812 124.115 43.5565 124.065 43.5071C124.016 43.4577 123.966 43.4329 123.917 43.4329C123.867 43.4329 123.818 43.4577 123.769 43.5071C123.769 43.6059 123.744 43.6553 123.695 43.6553C123.695 43.6553 123.67 43.6553 123.62 43.6553H123.695C123.695 43.6553 123.695 43.6306 123.695 43.5812C123.695 43.5318 123.447 43.3341 122.953 42.9882C122.855 42.9882 122.682 42.9388 122.435 42.84C122.237 42.7412 121.916 42.4941 121.471 42.0988L120.952 40.3941V40.1718C121.15 39.8259 121.224 39.48 121.175 39.1341C121.175 39.0847 121.15 39.0353 121.1 38.9859C121.1 38.7388 121.1 38.4177 121.1 38.0224C121.15 37.6271 121.199 37.1824 121.249 36.6882C121.397 35.9471 121.57 35.6012 121.767 35.6506C121.619 35.4035 121.644 35.1071 121.842 34.7612C121.842 34.7118 121.866 34.6871 121.916 34.6871C122.015 34.6871 122.089 34.6624 122.138 34.6129C122.039 34.4153 121.99 34.2918 121.99 34.2424C121.99 34.0447 122.089 33.8471 122.286 33.6494C122.336 33.2047 122.36 32.9082 122.36 32.76C122.41 32.6118 122.435 32.5871 122.435 32.6859C122.435 32.6859 122.459 32.6365 122.509 32.5377C122.558 32.4388 122.607 32.3647 122.657 32.3153C122.509 32.1671 122.435 32.0435 122.435 31.9447C122.435 31.8953 122.459 31.8459 122.509 31.7965C122.607 31.6977 122.657 31.6235 122.657 31.5741C122.904 31.5741 123.126 31.4753 123.324 31.2777C123.324 31.2282 123.299 31.2035 123.25 31.2035C123.2 31.0059 123.299 30.8082 123.546 30.6106C123.793 30.3635 123.942 30.1906 123.991 30.0918C123.991 30.0424 123.892 30.0177 123.695 30.0177V29.7212C123.645 29.6224 123.62 29.5235 123.62 29.4247L123.843 29.2024C123.942 29.2518 124.016 29.2518 124.065 29.2024C124.016 29.1035 123.991 28.9306 123.991 28.6835C123.991 28.1894 123.917 27.9424 123.769 27.9424C123.571 27.9424 122.484 28.4859 120.507 29.5729C120.507 29.4247 120.557 29.2765 120.656 29.1282C120.755 28.9306 120.779 28.8071 120.73 28.7577C121.125 28.56 121.347 28.4118 121.397 28.3129C121.496 28.2141 121.619 28.1647 121.767 28.1647C121.817 28.1647 121.891 28.1153 121.99 28.0165C122.039 27.9671 122.064 27.9424 122.064 27.9424C122.064 27.8929 122.113 27.8682 122.212 27.8682C122.262 27.8682 122.311 27.8929 122.36 27.9424L123.027 27.72C123.176 27.5718 123.225 27.4977 123.176 27.4977C123.324 27.4977 123.398 27.4729 123.398 27.4235H123.472C123.67 27.4235 123.843 27.3 123.991 27.0529H124.139C124.189 27.0035 124.213 27.0035 124.213 27.0529C124.213 27.1024 124.238 27.1024 124.287 27.0529C124.337 27.0035 124.386 26.9788 124.436 26.9788C124.782 26.9788 125.127 26.8306 125.473 26.5341C125.77 26.6329 125.918 26.6824 125.918 26.6824C125.967 26.6824 126.042 26.6329 126.14 26.5341C126.239 26.5341 126.387 26.6329 126.585 26.8306C126.783 26.8306 126.882 26.7565 126.882 26.6082C126.882 26.6082 127.03 26.6577 127.326 26.7565C127.376 26.9541 127.524 27.1271 127.771 27.2753C127.771 27.5224 127.969 27.9671 128.364 28.6094C128.315 28.6588 128.216 28.7577 128.067 28.9059C127.919 29.0541 127.722 29.3012 127.475 29.6471C127.475 29.7953 127.45 29.9188 127.4 30.0177L126.437 31.0553C126.387 31.5 126.017 32.1671 125.325 33.0565C125.325 33.4024 125.177 33.8471 124.88 34.3906C124.633 34.8847 124.51 35.1812 124.51 35.28C124.065 35.4777 123.843 35.9471 123.843 36.6882C123.843 36.7871 123.892 36.96 123.991 37.2071C124.09 37.4047 124.139 37.5282 124.139 37.5777C124.139 37.6271 124.09 37.7259 123.991 37.8741C123.942 38.0224 123.917 38.1459 123.917 38.2447V38.6153H123.843L123.917 38.6894C123.917 38.7388 123.917 38.8624 123.917 39.06C123.917 39.2082 123.942 39.4059 123.991 39.6529C123.991 39.6529 124.04 39.7024 124.139 39.8012C124.287 40.1965 124.411 40.3941 124.51 40.3941C124.609 40.5424 124.609 40.6906 124.51 40.8388C124.707 40.9377 124.757 41.0859 124.658 41.2835L124.88 41.5059C125.078 41.4071 125.325 41.2588 125.622 41.0612C125.967 40.8635 126.338 40.6165 126.733 40.32C126.98 40.5671 127.129 40.6906 127.178 40.6906C127.227 40.6906 127.277 40.6165 127.326 40.4682C127.87 40.1718 128.216 39.9 128.364 39.6529C128.809 39.4059 129.278 38.9859 129.772 38.3929C129.772 38.4424 129.797 38.4918 129.846 38.5412H129.995L130.217 38.0965C130.415 37.9977 130.785 37.6765 131.329 37.1329L131.847 36.6141C131.847 36.3671 131.996 36.1694 132.292 36.0212C132.638 35.8235 133.256 35.1812 134.145 34.0941C134.145 34.1435 134.17 34.1929 134.219 34.2424C134.516 33.7977 134.713 33.4024 134.812 33.0565C134.812 32.9577 134.787 32.8588 134.738 32.76C134.738 32.5624 134.812 32.2906 134.96 31.9447C135.109 31.5494 135.232 31.1541 135.331 30.7588L135.627 30.5365C136.22 30.2894 136.443 29.6965 136.295 28.7577H136.517C136.566 28.7577 136.665 28.6588 136.813 28.4612C137.011 28.2141 137.209 28.0906 137.406 28.0906C137.456 28.0906 137.505 28.1153 137.555 28.1647C137.653 28.2141 137.727 28.2388 137.777 28.2388C137.826 28.2388 137.9 28.1153 137.999 27.8682C138.246 27.9177 138.395 28.0659 138.444 28.3129C138.444 28.3129 138.493 28.1894 138.592 27.9424C138.74 27.8435 138.889 27.6706 139.037 27.4235L139.185 26.8306L139.704 26.0153C139.902 25.9165 140.05 25.7929 140.149 25.6447C140.247 25.5459 140.346 25.4965 140.445 25.4965C140.692 25.4965 140.766 25.7188 140.667 26.1635L140.371 26.46C140.124 26.7071 139.877 27.1518 139.63 27.7941C139.63 27.7941 139.605 27.8188 139.556 27.8682C139.506 27.8682 139.432 27.8929 139.333 27.9424C139.333 28.0906 139.21 28.2882 138.963 28.5353L139.852 29.3506C139.704 29.4988 139.605 29.7212 139.556 30.0177C139.358 30.1659 139.037 30.5859 138.592 31.2777C138.543 31.3765 138.493 31.5 138.444 31.6482C138.395 31.7965 138.32 31.9941 138.222 32.2412L137.48 33.2047L137.555 33.5012L137.332 33.3529C137.233 33.5506 137.135 33.7729 137.036 34.02C136.937 34.2177 136.838 34.44 136.739 34.6871C136.64 34.8847 136.443 35.1318 136.146 35.4282V35.5765C136.047 35.6753 135.924 36.0212 135.776 36.6141C135.726 36.6635 135.652 36.8118 135.553 37.0588C135.455 37.2565 135.282 37.5282 135.035 37.8741C135.084 37.9235 135.109 38.0471 135.109 38.2447L134.738 38.6894C134.59 39.2329 134.417 39.9247 134.219 40.7647C134.071 41.5553 133.898 42.4941 133.7 43.5812C133.651 43.8282 133.602 44.0506 133.552 44.2482C133.552 44.4953 133.503 44.7177 133.404 44.9153L133.478 45.2118V46.1753C133.379 46.5706 133.355 46.8424 133.404 46.9906ZM141.686 42.9141C141.637 42.9141 141.562 42.8647 141.464 42.7659C141.414 42.7165 141.34 42.6918 141.241 42.6918C141.291 42.6918 141.192 42.7412 140.945 42.84L140.055 41.7282V39.8753L140.204 39.7271V39.5788C140.204 39.48 140.228 39.3565 140.278 39.2082C140.377 39.06 140.451 38.8871 140.5 38.6894C140.451 38.64 140.426 38.5412 140.426 38.3929C140.426 38.1459 140.599 37.9235 140.945 37.7259C140.895 37.5777 140.895 37.3306 140.945 36.9847L141.167 36.54C141.266 36.3918 141.241 36.2435 141.093 36.0953L141.39 34.4647C141.439 34.4153 141.513 34.2424 141.612 33.9459L141.908 31.2777C141.859 31.2282 141.834 31.1294 141.834 30.9812C141.933 30.7835 141.982 30.66 141.982 30.6106C141.982 30.2647 141.958 30.0424 141.908 29.9435C141.859 29.8447 141.81 29.7459 141.76 29.6471C141.81 29.4494 141.834 29.2024 141.834 28.9059C141.834 28.4612 141.661 28.2388 141.315 28.2388C141.315 28.2388 141.266 28.2635 141.167 28.3129C141.118 28.3129 141.019 28.3377 140.871 28.3871L140.797 28.0906V28.0165C140.797 27.7694 141.019 27.5224 141.464 27.2753C141.513 27.2753 141.538 27.3 141.538 27.3494H141.686C141.884 27.3494 142.081 27.2506 142.279 27.0529L143.391 27.9424C143.44 27.9424 143.415 28.0659 143.317 28.3129L143.687 28.8318V30.6106C143.737 30.7094 143.761 30.7835 143.761 30.8329C143.811 30.8824 143.835 30.9318 143.835 30.9812C143.835 31.0306 143.811 31.08 143.761 31.1294C143.712 31.1788 143.687 31.2529 143.687 31.3518V33.9459C143.638 33.9459 143.588 33.9706 143.539 34.02C143.588 34.0694 143.613 34.6871 143.613 35.8729C143.613 35.9718 143.564 36.12 143.465 36.3177C143.366 36.5153 143.317 36.6388 143.317 36.6882C143.317 36.7377 143.366 36.8612 143.465 37.0588H143.613C143.613 37.0588 143.737 36.6882 143.984 35.9471H144.206C144.206 35.8482 144.206 35.7494 144.206 35.6506C144.206 35.5024 144.231 35.3294 144.28 35.1318L145.244 34.02C145.293 33.9212 145.367 33.7977 145.466 33.6494C145.565 33.4518 145.664 33.2541 145.762 33.0565C145.812 32.9577 145.985 32.76 146.281 32.4635C146.331 32.3647 146.38 32.2659 146.43 32.1671C146.479 32.0188 146.553 31.8459 146.652 31.6482L147.171 31.2035C147.171 31.1047 147.22 31.0059 147.319 30.9071C147.467 30.7588 147.566 30.6106 147.615 30.4624C147.862 30.4129 148.035 30.1659 148.134 29.7212C148.431 29.5729 148.826 29.2518 149.32 28.7577V28.4612C149.715 28.1153 149.888 27.9424 149.839 27.9424H149.913C149.913 27.9918 149.938 28.0165 149.987 28.0165C149.938 28.0165 150.234 27.6459 150.877 26.9047C151.124 26.8059 151.544 26.4106 152.137 25.7188C152.482 25.5706 152.878 25.3235 153.322 24.9777H153.99L154.805 25.1259C155.052 25.2247 155.324 25.4224 155.62 25.7188C155.917 25.9659 156.139 26.4353 156.287 27.1271V27.8682C156.287 27.9671 156.262 28.14 156.213 28.3871C156.213 28.5847 156.188 28.8565 156.139 29.2024C156.09 29.9435 155.447 30.8824 154.212 32.0188C154.014 32.0188 153.742 32.1424 153.397 32.3894V31.5741C153.495 31.4753 153.594 31.3518 153.693 31.2035C153.792 31.0059 153.891 30.8082 153.99 30.6106C153.99 30.5118 153.792 30.4129 153.397 30.3141C153.693 29.7212 153.841 29.3506 153.841 29.2024C153.841 29.0541 153.767 28.8812 153.619 28.6835C153.52 28.7329 153.446 28.7824 153.397 28.8318C153.347 28.8318 153.322 28.8318 153.322 28.8318C152.927 28.8318 152.754 28.8071 152.804 28.7577C152.754 28.7082 152.73 28.5847 152.73 28.3871H152.581C152.482 28.3871 152.334 28.4859 152.137 28.6835C151.939 28.8318 151.815 28.9059 151.766 28.9059C151.717 28.9059 151.692 28.8812 151.692 28.8318H151.544C151.494 28.8318 151.42 28.8812 151.321 28.98C151.222 29.0788 151.124 29.1282 151.025 29.1282C150.926 29.1282 150.827 29.0541 150.728 28.9059C150.63 28.9059 150.555 28.9306 150.506 28.98C150.605 29.1777 150.605 29.4 150.506 29.6471C150.308 29.9435 150.111 30.0918 149.913 30.0918C149.864 30.0918 149.79 30.0671 149.691 30.0177C149.641 29.9682 149.592 29.9435 149.542 29.9435C149.542 30.1906 149.567 30.3635 149.617 30.4624L149.024 31.2035C148.925 31.3024 148.801 31.3518 148.653 31.3518C148.604 31.3518 148.53 31.3024 148.431 31.2035L148.06 32.2412H147.986C147.739 32.2412 147.368 32.5624 146.874 33.2047L146.578 33.3529C145.935 34.4894 145.367 35.4282 144.873 36.1694C144.428 36.9106 144.082 37.4294 143.835 37.7259V38.3188C143.49 38.5659 143.292 39.0847 143.242 39.8753C143.144 39.9741 143.045 40.1471 142.946 40.3941C143.045 40.5918 143.045 40.8882 142.946 41.2835C142.897 41.3329 142.847 41.4565 142.798 41.6541C142.748 41.8024 142.674 42.0247 142.575 42.3212C142.328 42.7165 142.032 42.9141 141.686 42.9141ZM149.794 69.6706C149.646 69.6706 149.424 69.5471 149.127 69.3C148.781 69.0529 148.534 68.9294 148.386 68.9294C148.238 68.9294 148.164 68.9541 148.164 69.0035C148.164 69.0529 148.114 69.0777 148.016 69.0777C147.917 69.0777 147.793 68.9788 147.645 68.7812C147.497 68.5835 147.373 68.4847 147.274 68.4847C147.126 68.4847 147.052 68.5094 147.052 68.5588C147.003 68.6082 146.928 68.6329 146.83 68.6329C146.928 68.6329 146.681 68.46 146.088 68.1141C145.891 68.0647 145.644 67.9165 145.347 67.6694C145.001 67.4718 144.507 67.0765 143.865 66.4835C143.964 66.3847 143.964 66.2859 143.865 66.1871C143.371 65.7424 142.852 65.2235 142.308 64.6306C142.308 64.5318 142.308 64.4082 142.308 64.26C142.308 64.1118 142.284 63.9388 142.234 63.7412C142.185 63.6918 142.086 63.5435 141.938 63.2965C141.74 63.0494 141.641 62.8518 141.641 62.7035C141.641 62.6541 141.716 62.4565 141.864 62.1106C142.012 61.8141 142.061 61.3941 142.012 60.8506C142.21 60.8506 142.358 60.8012 142.457 60.7024C142.457 58.9729 143.396 56.7988 145.273 54.18C145.372 54.0318 145.471 53.9577 145.57 53.9577C145.817 53.9577 145.841 54.1059 145.644 54.4024C145.15 55.0941 144.73 55.7612 144.384 56.4035C144.038 57.0953 143.766 57.7129 143.568 58.2565C143.321 58.8494 143.198 59.6647 143.198 60.7024V60.8506C143.198 61.4929 143.321 62.1106 143.568 62.7035C143.816 63.3459 144.112 63.9388 144.458 64.4824C145.347 65.9647 146.459 66.9282 147.793 67.3729C148.732 67.7188 149.523 67.9412 150.165 68.04L153.13 68.4106H153.278C153.377 68.4106 153.5 68.3859 153.648 68.3365C153.797 68.3365 154.143 68.3365 154.686 68.3365C154.933 68.3365 155.798 68.0894 157.28 67.5953C158.071 67.3482 158.664 67.1506 159.059 67.0024C159.504 66.9035 159.751 66.8541 159.8 66.8541C159.899 66.8541 159.924 66.8788 159.874 66.9282C159.874 66.9777 159.948 67.0024 160.097 67.0024C160.196 67.0024 160.393 66.8788 160.69 66.6318C160.986 66.4341 161.184 66.3106 161.283 66.2612L162.691 65.8165L162.765 65.7424C162.963 65.5447 163.308 65.3471 163.803 65.1494C163.901 65.2482 164.025 65.2482 164.173 65.1494L164.84 64.6306C165.285 64.5812 165.631 64.4577 165.878 64.26C166.125 64.1118 166.248 64.0377 166.248 64.0377H166.323L166.841 63.7412C166.891 63.6918 166.916 63.6424 166.916 63.5929C167.261 63.4447 167.681 63.1729 168.176 62.7777L169.954 61.6659L170.251 61.4435C170.3 61.4435 170.374 61.3941 170.473 61.2953C170.621 61.1965 170.72 61.0482 170.77 60.8506L171.066 60.9988L171.363 60.5541L172.104 60.1835C172.203 60.0847 172.277 60.0106 172.326 59.9612C172.376 59.9118 172.425 59.8624 172.474 59.8129L173.364 58.7012C173.561 58.6024 173.685 58.5035 173.734 58.4047C173.833 58.3059 174.031 58.1577 174.327 57.96C174.525 57.7624 174.723 57.4659 174.92 57.0706C175.118 57.0706 175.711 56.5765 176.699 55.5882C177.094 55.1929 177.168 54.9706 176.921 54.9212C176.971 54.9212 177.02 54.9459 177.07 54.9953L177.292 54.7729V54.4024C177.045 54.3529 176.946 54.3035 176.996 54.2541C176.6 54.4024 176.205 54.7482 175.81 55.2918C175.464 55.8353 174.97 56.3294 174.327 56.7741C174.278 56.7741 174.253 56.8729 174.253 57.0706H173.957C173.957 57.0212 174.006 56.9471 174.105 56.8482V56.6259C174.056 56.5765 173.957 56.5518 173.808 56.5518C173.907 56.3541 173.957 56.2059 173.957 56.1071C174.352 55.6129 174.797 55.0694 175.291 54.4765C175.785 53.8835 176.304 53.2165 176.847 52.4753C177.44 51.8824 177.811 51.3388 177.959 50.8447C178.008 50.7953 178.058 50.6718 178.107 50.4741C178.206 50.3259 178.305 50.0294 178.404 49.5847C178.601 49.3377 178.799 49.0412 178.997 48.6953C179.244 48.3494 179.293 48.0777 179.145 47.88C179.244 47.7812 179.343 47.4106 179.441 46.7682C179.59 46.7188 179.738 46.5212 179.886 46.1753C179.936 45.8294 179.96 45.5082 179.96 45.2118C180.01 44.9647 180.034 44.7424 180.034 44.5447C180.034 44.5447 180.034 44.52 180.034 44.4706C180.034 44.4212 180.01 44.3718 179.96 44.3224L180.034 44.0259L179.738 42.84C179.491 41.8024 178.947 40.9871 178.107 40.3941C178.058 40.2953 177.959 40.1718 177.811 40.0235C177.712 39.8753 177.588 39.7518 177.44 39.6529C176.501 39.2082 175.81 38.9859 175.365 38.9859C175.316 38.9859 175.266 39.0106 175.217 39.06C175.167 39.1094 175.118 39.1341 175.068 39.1341C175.019 39.1341 174.92 39.0847 174.772 38.9859C174.624 38.8871 174.525 38.8377 174.476 38.8377C174.278 38.8377 173.808 38.9365 173.067 39.1341C172.326 39.2824 171.857 39.3565 171.659 39.3565H171.585C171.585 39.3071 171.536 39.2824 171.437 39.2824C171.437 39.2824 171.363 39.3071 171.214 39.3565C171.116 39.4059 170.943 39.4553 170.696 39.5047C170.448 39.7024 170.276 39.8012 170.177 39.8012C170.127 39.8012 170.053 39.7765 169.954 39.7271C169.856 39.6777 169.781 39.6529 169.732 39.6529C169.683 39.6529 169.584 39.7024 169.436 39.8012C169.337 39.9 169.238 39.9494 169.139 39.9494C169.09 39.9494 169.065 39.9247 169.065 39.8753H168.991C169.09 39.8753 168.596 40.1471 167.508 40.6906C167.311 40.74 167.113 40.8388 166.916 40.9871C166.767 41.1353 166.644 41.2094 166.545 41.2094C166.496 41.2094 166.471 41.1847 166.471 41.1353C166.471 41.0859 166.421 41.0612 166.323 41.0612C166.026 41.0612 165.754 41.2588 165.507 41.6541C165.211 41.7035 164.914 41.7777 164.618 41.8765C164.321 42.0247 164 42.1977 163.654 42.3953C163.556 42.3953 163.432 42.42 163.284 42.4694C162.938 42.5188 162.617 42.7412 162.32 43.1365C162.221 43.0377 162.098 43.0377 161.95 43.1365C161.851 43.1859 161.727 43.2353 161.579 43.2847C161.431 43.3835 161.208 43.4577 160.912 43.5071C160.863 43.5565 160.739 43.6059 160.541 43.6553C160.393 43.7541 160.146 43.8035 159.8 43.8035H159.652C159.652 43.7541 159.603 43.7294 159.504 43.7294C159.356 43.7294 159.183 43.8282 158.985 44.0259C158.54 43.7294 158.293 43.5812 158.244 43.5812C158.194 43.5812 158.17 43.6059 158.17 43.6553H158.021C157.923 43.6553 157.848 43.6306 157.799 43.5812C157.75 43.2847 157.428 42.9388 156.836 42.5435V41.8765C156.836 41.0365 157.008 40.3447 157.354 39.8012C157.552 39.7024 157.725 39.5788 157.873 39.4306C158.021 39.2824 158.318 39.06 158.763 38.7635C158.763 38.7141 158.985 38.5412 159.43 38.2447C159.874 37.9482 160.097 37.7506 160.097 37.6518C160.739 37.3059 161.53 37.0094 162.468 36.7624C162.814 36.7129 163.358 36.3918 164.099 35.7988C164 35.7 163.704 35.5271 163.21 35.28V35.2059C163.21 35.1071 163.185 34.9835 163.136 34.8353C163.086 34.6377 163.012 34.44 162.913 34.2424L162.765 33.2788C162.864 33.18 162.913 33.0812 162.913 32.9824C162.814 32.6859 162.765 32.5377 162.765 32.5377V31.7965L163.21 31.0553V30.6106C163.457 30.4624 163.679 30.0671 163.877 29.4247C164.074 29.3753 164.297 29.1035 164.544 28.6094L164.766 28.1647C164.914 28.0659 165.087 27.9177 165.285 27.72C165.532 27.4729 165.804 27.2012 166.1 26.9047C166.051 26.9047 165.779 26.7318 165.285 26.3859C164.791 26.04 164.494 25.8671 164.396 25.8671C164.297 25.9165 164.223 25.9412 164.173 25.9412C164.074 25.7929 163.951 25.6447 163.803 25.4965C163.704 25.3482 163.556 25.2 163.358 25.0518C163.358 25.0024 163.383 24.9529 163.432 24.9035C163.481 24.8047 163.506 24.7306 163.506 24.6812C163.506 24.6318 163.457 24.5577 163.358 24.4588C163.259 24.3106 163.21 24.1871 163.21 24.0882C163.21 24.0388 163.284 23.8906 163.432 23.6435C163.58 23.3471 163.679 23.1988 163.728 23.1988C164.173 23.1988 164.396 23.4953 164.396 24.0882C164.544 24.0882 164.692 24.1129 164.84 24.1624C165.236 24.7059 165.507 24.9777 165.656 24.9777C165.705 24.9777 165.754 24.9529 165.804 24.9035H165.878C165.927 24.9035 166.051 24.9529 166.248 25.0518C166.446 25.1012 166.693 25.1259 166.99 25.1259C167.039 25.3235 167.138 25.4224 167.286 25.4224C167.336 25.4224 167.41 25.3977 167.508 25.3482C167.607 25.2988 167.681 25.2741 167.731 25.2741C167.78 25.2741 167.83 25.2988 167.879 25.3482C167.928 25.3977 168.003 25.4224 168.101 25.4224C168.2 25.4224 168.324 25.3235 168.472 25.1259L169.213 24.6812L169.584 24.9035C169.88 24.9035 170.127 24.7553 170.325 24.4588C170.572 24.7553 170.77 24.9529 170.918 25.0518C171.116 25.1506 171.313 25.2494 171.511 25.3482V25.4224L172.03 26.0153C172.376 26.0647 172.746 26.0894 173.141 26.0894C173.586 26.0894 174.056 26.0894 174.55 26.0894C174.747 26.04 174.896 26.0153 174.994 26.0153C175.093 26.0153 175.143 26.0153 175.143 26.0153C175.143 26.0153 175.217 26.0647 175.365 26.1635C175.464 26.2624 175.661 26.2624 175.958 26.1635C176.156 26.1141 176.328 26.0894 176.477 26.0894L176.773 26.2377H177.218C177.366 26.1882 177.514 26.1635 177.663 26.1635L178.7 25.8671C178.75 25.9165 178.824 25.9412 178.923 25.9412C178.972 25.8918 179.046 25.8671 179.145 25.8671C179.244 25.8671 179.343 25.8424 179.441 25.7929H179.96L181.294 25.8671C181.344 26.0647 181.344 26.2377 181.294 26.3859C181.245 26.4353 181.171 26.46 181.072 26.46C180.973 26.46 180.874 26.4847 180.776 26.5341C180.627 26.5341 180.504 26.5341 180.405 26.5341C180.306 26.4847 180.207 26.46 180.108 26.46C179.861 26.46 179.565 26.5588 179.219 26.7565C178.824 27.0035 178.601 27.1271 178.552 27.1271C178.552 27.1271 178.354 27.0777 177.959 26.9788C177.91 26.9788 177.811 27.0282 177.663 27.1271C177.514 27.1765 177.267 27.2506 176.921 27.3494C176.823 27.2506 176.699 27.1765 176.551 27.1271C176.452 27.3741 175.785 27.5718 174.55 27.72C174.797 28.1153 174.896 28.3129 174.846 28.3129C174.846 28.3129 175.044 28.6341 175.439 29.2765C175.538 29.6224 175.538 30.1412 175.439 30.8329C175.291 30.9812 175.068 31.2282 174.772 31.5741C174.476 31.92 174.056 32.2906 173.512 32.6859L173.364 32.9824C172.524 33.5259 172.079 33.7977 172.03 33.7977H171.956C171.956 33.7482 171.931 33.7235 171.881 33.7235C171.881 33.7235 171.758 33.7977 171.511 33.9459C171.264 34.0447 170.992 34.2424 170.696 34.5388C170.201 34.5388 169.88 34.6377 169.732 34.8353C169.633 34.9835 169.411 35.1812 169.065 35.4282C168.966 35.4282 168.843 35.4529 168.694 35.5024C168.546 35.5024 168.373 35.5271 168.176 35.5765L167.731 35.8729H167.064L166.767 36.0953C166.718 36.0953 166.668 36.0706 166.619 36.0212C166.57 35.9718 166.52 35.9471 166.471 35.9471C166.421 35.9471 166.372 35.9965 166.323 36.0953C166.323 36.1447 166.273 36.1694 166.174 36.1694H166.1C166.051 36.12 166.001 36.0953 165.952 36.0953C165.754 36.0953 165.606 36.1447 165.507 36.2435C164.964 36.4412 164.396 36.6882 163.803 36.9847C163.259 37.2318 162.716 37.4788 162.172 37.7259L161.505 38.0224L159.652 39.2824C159.553 39.3812 159.405 39.5294 159.207 39.7271C159.059 39.9247 158.886 40.1471 158.688 40.3941C158.688 40.5424 158.59 40.7894 158.392 41.1353C158.343 41.3824 158.293 41.5553 158.244 41.6541C158.244 41.7035 158.244 41.7035 158.244 41.6541C158.244 41.9012 158.441 42.2224 158.837 42.6177C158.936 42.6177 159.059 42.6424 159.207 42.6918C159.356 42.7412 159.454 42.7659 159.504 42.7659C159.652 42.7659 159.726 42.7165 159.726 42.6177C159.726 42.6671 159.726 42.6671 159.726 42.6177C159.776 42.6671 160.22 42.6918 161.06 42.6918C161.208 42.6918 161.579 42.5188 162.172 42.1729C162.814 41.8765 163.308 41.7035 163.654 41.6541C163.852 41.3082 164.099 41.1353 164.396 41.1353C164.445 41.1353 164.47 41.16 164.47 41.2094H164.544C164.494 41.2094 164.643 41.1106 164.988 40.9129L166.026 40.5424C166.125 40.4929 166.248 40.4188 166.397 40.32C166.545 40.1718 166.644 40.0977 166.693 40.0977H166.767C166.767 40.1471 166.792 40.1718 166.841 40.1718C166.94 40.1718 166.99 40.1471 166.99 40.0977C167.039 39.9988 167.088 39.9494 167.138 39.9494H167.212C167.212 39.9988 167.237 40.0235 167.286 40.0235C167.336 40.0235 167.434 39.9741 167.583 39.8753C167.731 39.7271 167.83 39.6529 167.879 39.6529C168.274 39.5541 168.596 39.4306 168.843 39.2824L169.139 39.06C169.831 39.0106 170.374 38.8129 170.77 38.4671C171.017 38.3188 171.313 38.1953 171.659 38.0965C172.054 37.9482 172.647 37.8247 173.438 37.7259L173.586 37.5777H173.734C173.784 37.6271 173.833 37.6518 173.883 37.6518C173.932 37.6518 174.006 37.6271 174.105 37.5777C174.253 37.4788 174.377 37.4294 174.476 37.4294C174.327 37.4294 174.377 37.4788 174.624 37.5777C174.673 37.38 174.846 37.2812 175.143 37.2812C175.192 37.2812 175.241 37.3059 175.291 37.3553C175.34 37.4047 175.39 37.4294 175.439 37.4294C175.538 37.4294 175.587 37.4047 175.587 37.3553C175.637 37.3059 175.711 37.2812 175.81 37.2812C175.859 37.2812 175.884 37.3059 175.884 37.3553C175.884 37.4047 175.933 37.4294 176.032 37.4294C176.081 37.4294 176.106 37.4047 176.106 37.3553C176.156 37.3059 176.205 37.2812 176.254 37.2812C176.353 37.2812 176.427 37.3059 176.477 37.3553C176.526 37.4047 176.576 37.4294 176.625 37.4294C176.674 37.4294 176.724 37.4047 176.773 37.3553C176.872 37.3059 176.946 37.2812 176.996 37.2812C176.996 37.2812 177.243 37.38 177.737 37.5777C177.885 37.5777 177.959 37.5282 177.959 37.4294C178.453 37.5777 178.725 37.6765 178.774 37.7259H178.923C179.021 37.7259 179.17 37.8741 179.367 38.1706L180.108 38.3929C180.207 38.64 180.356 38.8377 180.553 38.9859C180.701 38.9365 180.8 38.9118 180.85 38.9118C180.948 38.8624 180.998 38.8377 180.998 38.8377C180.998 39.1341 181.023 39.3071 181.072 39.3565C181.072 39.2577 181.146 39.2082 181.294 39.2082V39.4306C181.393 39.48 181.517 39.6035 181.665 39.8012C181.813 39.9494 181.912 40.0235 181.961 40.0235C182.06 39.9741 182.134 39.9494 182.184 39.9494C182.283 40.2459 182.431 40.5424 182.628 40.8388C182.628 41.0365 182.678 41.2341 182.777 41.4318C182.925 41.6294 183.024 41.7777 183.073 41.8765C183.172 42.1235 183.246 42.4447 183.296 42.84C183.394 43.2847 183.493 44.2482 183.592 45.7306C183.592 45.7306 183.617 45.7553 183.666 45.8047C183.716 45.9035 183.74 45.9777 183.74 46.0271L183.444 46.7682C183.296 47.1635 183.345 47.4353 183.592 47.5835L182.999 48.6212C182.95 48.6706 182.999 48.7694 183.147 48.9177L182.703 49.4365C182.703 49.5847 182.678 49.7082 182.628 49.8071L181.739 51.2153L181.294 52.1788C181.196 52.3765 180.899 52.8212 180.405 53.5129C179.96 54.2047 179.318 55.1188 178.478 56.2553L178.107 56.4777C177.91 56.8235 177.539 57.2188 176.996 57.6635C176.501 58.1082 175.834 58.7259 174.994 59.5165L174.179 60.0353C174.13 60.0353 174.08 60.1341 174.031 60.3318C173.883 60.2824 173.734 60.4059 173.586 60.7024C173.388 60.7024 173.141 60.8506 172.845 61.1471C172.647 61.3941 172.326 61.6906 171.881 62.0365C171.437 62.3824 170.868 62.8024 170.177 63.2965C169.633 63.6424 168.941 64.0624 168.101 64.5565C167.261 65.1 166.273 65.6929 165.137 66.3353C164.593 66.5824 163.654 66.8788 162.32 67.2247C161.036 67.62 159.38 68.0894 157.354 68.6329L156.984 68.9294C156.737 68.9788 156.44 69.0282 156.094 69.0777C155.699 69.1271 155.23 69.2012 154.686 69.3L152.907 69.6706C152.808 69.6706 152.561 69.6212 152.166 69.5224C151.721 69.4235 151.45 69.3741 151.351 69.3741C151.203 69.3741 151.079 69.3494 150.98 69.3C150.832 69.2506 150.708 69.2259 150.61 69.2259L150.313 68.9294L149.794 69.6706ZM182.11 26.46C181.912 26.1141 181.887 25.9412 182.036 25.9412C182.332 25.9412 182.554 25.9659 182.703 26.0153C182.801 26.0153 182.851 25.9412 182.851 25.7929H183.221C183.271 25.7435 183.32 25.6941 183.37 25.6447C183.419 25.5953 183.468 25.5459 183.518 25.4965C183.716 25.4965 184.284 25.2247 185.223 24.6812C185.42 24.6318 185.593 24.6071 185.741 24.6071C185.939 24.6071 186.087 24.6071 186.186 24.6071C186.68 24.6071 187.001 24.6812 187.15 24.8294V24.9035C187.15 25.0518 186.927 25.2 186.483 25.3482C186.038 25.4471 185.766 25.5459 185.667 25.6447C185.618 25.6941 185.42 25.7682 185.074 25.8671L184.481 26.0153C183.938 26.4106 183.37 26.5588 182.777 26.46C182.579 26.3612 182.357 26.3612 182.11 26.46ZM168.324 33.9459C168.423 33.7977 168.546 33.7235 168.694 33.7235C168.744 33.7235 168.793 33.7482 168.843 33.7977H168.991C169.04 33.7977 169.114 33.7729 169.213 33.7235C169.361 33.6247 169.46 33.5753 169.51 33.5753C169.608 33.5753 169.658 33.6 169.658 33.6494H169.732C170.028 33.6494 170.498 33.4518 171.14 33.0565C172.128 32.3647 172.647 32.0188 172.697 32.0188H172.919C172.968 31.8706 173.141 31.6482 173.438 31.3518C173.734 31.0059 173.883 30.6847 173.883 30.3882C173.883 30.0424 173.685 29.5482 173.29 28.9059C173.24 28.9059 173.117 28.8565 172.919 28.7577C172.919 28.8071 172.894 28.7824 172.845 28.6835C172.845 28.5847 172.82 28.4365 172.771 28.2388L172.326 27.8682C172.227 27.8682 172.104 27.8682 171.956 27.8682C171.807 27.8682 171.659 27.8435 171.511 27.7941C171.313 27.3494 171.239 27.1024 171.288 27.0529L171.659 26.6824C171.017 26.7812 170.646 26.9294 170.547 27.1271C170.448 27.3247 170.325 27.4977 170.177 27.6459L169.584 27.7941L168.25 28.8318C168.003 29.2765 167.607 29.6224 167.064 29.8694C166.965 30.0177 166.841 30.2153 166.693 30.4624C166.594 30.66 166.471 30.8824 166.323 31.1294C166.372 31.3271 166.323 31.5494 166.174 31.7965V32.6118C166.471 32.7106 166.594 32.9082 166.545 33.2047C166.792 33.2047 166.94 33.2294 166.99 33.2788V33.5012H167.212C167.657 33.5012 168.027 33.6494 168.324 33.9459ZM178.626 37.8C178.676 37.8 178.7 37.8 178.7 37.8H178.626ZM185.337 42.3953C185.287 42.3459 185.213 42.2718 185.114 42.1729C185.065 42.0741 185.015 42.0247 184.966 42.0247H184.892C184.892 42.0741 184.867 42.0988 184.818 42.0988C184.719 42.0988 184.62 41.8765 184.521 41.4318C184.472 41.3824 184.299 41.3082 184.003 41.2094C183.854 40.6659 183.681 40.3694 183.484 40.32V38.3188L184.077 37.6518C184.126 37.6024 184.101 37.4294 184.003 37.1329C184.052 37.0341 184.101 36.9353 184.151 36.8365C184.2 36.7377 184.274 36.6388 184.373 36.54C184.373 36.3918 184.348 36.2188 184.299 36.0212C184.398 35.7247 184.546 35.5024 184.744 35.3541C184.744 35.0577 184.843 34.7859 185.04 34.5388C185.139 34.5388 185.411 34.2424 185.855 33.6494L186.597 32.5377C186.745 32.4388 187.041 32.1671 187.486 31.7224V31.4259C187.634 31.3271 187.783 31.1788 187.931 30.9812C188.277 30.9318 188.524 30.7835 188.672 30.5365C188.672 30.4871 188.672 30.4129 188.672 30.3141C188.672 30.2153 188.697 30.1165 188.746 30.0177C188.845 29.9682 188.944 29.9435 189.043 29.9435C189.141 29.9435 189.265 29.9188 189.413 29.8694C189.512 29.5729 189.635 29.3753 189.784 29.2765C190.426 29.2271 190.895 28.8812 191.192 28.2388C191.241 28.2388 191.34 28.1894 191.488 28.0906C191.686 27.9424 191.81 27.8682 191.859 27.8682C191.81 27.9177 191.884 27.9671 192.081 28.0165C192.18 27.9177 192.23 27.8435 192.23 27.7941C192.477 27.6459 192.699 27.5718 192.897 27.5718C193.144 27.2753 193.267 27.1271 193.267 27.1271C193.317 27.1271 193.341 27.1518 193.341 27.2012C193.391 27.2506 193.44 27.2753 193.49 27.2753C193.588 27.2753 193.761 27.2259 194.008 27.1271C194.305 26.9788 194.503 26.9047 194.601 26.9047H194.675C194.626 26.9541 194.651 26.9788 194.75 26.9788C194.799 26.9788 194.848 26.9541 194.898 26.9047C194.997 26.8059 195.071 26.7565 195.12 26.7565C195.219 26.7565 195.318 26.8059 195.417 26.9047C195.515 26.9541 195.59 26.9788 195.639 26.9788C195.688 26.9788 195.713 26.9541 195.713 26.9047C195.763 26.8553 195.837 26.8306 195.935 26.8306C195.837 26.8306 195.911 26.88 196.158 26.9788C196.207 26.7812 196.331 26.6824 196.528 26.6824C196.627 26.6824 196.677 26.7318 196.677 26.8306C196.726 26.88 196.8 26.9047 196.899 26.9047C196.948 26.9047 196.973 26.88 196.973 26.8306H197.121C197.22 26.8306 197.418 27.0282 197.714 27.4235C197.813 27.3247 197.863 27.2753 197.863 27.2753C198.208 27.5224 198.406 27.72 198.455 27.8682V28.6094L198.307 28.4612C198.011 28.56 197.714 28.6094 197.418 28.6094C197.368 28.6094 197.319 28.5847 197.27 28.5353C197.27 28.4859 197.22 28.4612 197.121 28.4612C197.072 28.4612 196.998 28.4859 196.899 28.5353C196.85 28.5847 196.8 28.6094 196.751 28.6094C196.652 28.6094 196.553 28.5847 196.454 28.5353C196.405 28.4859 196.355 28.4612 196.306 28.4612C196.257 28.4612 196.232 28.4859 196.232 28.5353C196.232 28.5847 196.183 28.6094 196.084 28.6094H196.01C196.059 28.56 196.034 28.5353 195.935 28.5353C195.886 28.5353 195.59 28.6588 195.046 28.9059C194.552 29.1529 194.28 29.2765 194.231 29.2765C194.181 29.2765 194.107 29.2024 194.008 29.0541L192.526 29.7212L192.007 29.5729C191.958 29.5729 191.834 29.6718 191.637 29.8694C191.439 30.0671 191.291 30.1659 191.192 30.1659C191.143 30.1659 191.118 30.1412 191.118 30.0918H191.044C190.846 30.0918 190.648 30.2153 190.451 30.4624C190.303 30.66 190.055 30.8082 189.71 30.9071C189.66 30.9565 189.66 31.0553 189.71 31.2035C189.463 31.7471 189.141 32.0929 188.746 32.2412C188.697 32.2906 188.672 32.3894 188.672 32.5377H188.153C188.104 32.5871 188.079 32.76 188.079 33.0565C188.079 33.0565 188.03 33.0565 187.931 33.0565C187.881 33.0565 187.807 33.0318 187.708 32.9824C187.56 33.2294 187.535 33.4765 187.634 33.7235H186.893C186.794 33.9212 186.671 34.1682 186.523 34.4647C186.374 34.7118 186.226 35.0329 186.078 35.4282C186.028 35.5765 185.93 35.7741 185.781 36.0212C185.683 36.2188 185.584 36.4659 185.485 36.7624C185.188 37.1082 184.941 37.5282 184.744 38.0224V38.6894C184.744 38.7388 184.719 38.8377 184.67 38.9859C184.62 39.1341 184.595 39.2577 184.595 39.3565C184.843 39.6035 185.09 39.7271 185.337 39.7271C185.485 39.7271 185.658 39.7024 185.855 39.6529C186.103 39.5541 186.325 39.3071 186.523 38.9118L186.745 39.06C187.14 38.9118 187.585 38.64 188.079 38.2447C188.128 38.1953 188.252 38.1459 188.45 38.0965C188.647 38.0471 188.746 37.9235 188.746 37.7259C188.795 37.7259 188.845 37.7506 188.894 37.8L189.191 37.2812C189.734 37.1824 190.031 36.8859 190.08 36.3918C190.179 36.3918 190.253 36.4165 190.303 36.4659L190.821 36.0212C190.821 35.9224 190.846 35.8235 190.895 35.7247C190.945 35.7247 190.994 35.7247 191.044 35.7247C191.093 35.6753 191.167 35.6259 191.266 35.5765L191.711 34.7612C191.859 34.6129 192.106 34.5141 192.452 34.4647C192.6 34.3659 192.724 34.2424 192.823 34.0941C192.971 33.9459 193.094 33.8224 193.193 33.7235C193.144 33.6247 193.094 33.5259 193.045 33.4271C192.995 33.3282 192.921 33.2294 192.823 33.1306C192.724 32.9824 192.773 32.8588 192.971 32.76C192.872 32.8094 192.823 32.76 192.823 32.6118V32.1671C192.971 32.0682 193.144 31.9694 193.341 31.8706C193.588 31.7718 193.835 31.6235 194.083 31.4259C194.28 31.3271 194.404 31.2777 194.453 31.2777C194.305 31.2777 194.354 31.3271 194.601 31.4259C194.7 31.1788 194.824 30.9071 194.972 30.6106C195.12 30.3141 195.268 29.9682 195.417 29.5729L196.01 29.2765C196.01 29.2765 196.059 29.4247 196.158 29.7212C195.763 30.2647 195.565 30.6847 195.565 30.9812C195.565 31.1294 195.812 31.2777 196.306 31.4259C196.306 31.4259 196.306 31.4506 196.306 31.5C196.306 31.5 196.281 31.5247 196.232 31.5741C196.43 31.7224 196.578 31.8706 196.677 32.0188C196.825 32.1671 196.924 32.2906 196.973 32.3894C196.627 32.8835 196.454 33.3529 196.454 33.7977L196.603 33.9459C196.553 33.9953 196.528 34.1929 196.528 34.5388C196.578 34.8353 196.627 35.1565 196.677 35.5024C196.775 35.7988 196.874 36.1447 196.973 36.54L197.492 37.2812V37.5035C197.492 38.1953 197.739 38.7882 198.233 39.2824L198.455 39.1341V39.3565C198.752 39.4553 199.073 39.6777 199.419 40.0235H200.234C200.383 40.2212 200.531 40.32 200.679 40.32C201.47 40.32 201.865 40.1224 201.865 39.7271C201.865 39.7271 201.914 39.7765 202.013 39.8753C202.557 39.6282 203.372 38.8129 204.459 37.4294C205.2 36.54 205.62 36.12 205.719 36.1694L206.015 36.2435V36.54L206.09 36.6141C206.09 36.6141 205.892 36.8859 205.497 37.4294C205.497 37.6271 205.299 37.8741 204.904 38.1706C205.003 38.22 205.003 38.2941 204.904 38.3929L204.459 38.6894L204.607 38.9118C204.113 39.06 203.718 39.2577 203.421 39.5047C203.125 39.7518 203.001 39.9247 203.051 40.0235C202.952 40.0235 202.779 40.1718 202.532 40.4682C202.334 40.4682 202.235 40.5671 202.235 40.7647C202.137 40.6659 202.087 40.6165 202.087 40.6165L201.865 40.7647C201.865 40.7647 201.815 40.7894 201.717 40.8388C201.667 40.8882 201.593 40.9624 201.494 41.0612C201.445 41.0612 201.371 41.0612 201.272 41.0612C201.173 41.0612 201.074 41.0859 200.975 41.1353L200.827 41.3577H200.457C200.407 41.3082 200.358 41.2835 200.308 41.2835C199.864 41.2835 199.518 41.4071 199.271 41.6541V41.3577H198.307V41.0612C198.208 41.16 198.134 41.2094 198.085 41.2094C197.986 41.2094 197.838 41.1353 197.64 40.9871C197.492 40.7894 197.319 40.7153 197.121 40.7647C196.874 40.3694 196.578 39.9741 196.232 39.5788C195.935 39.1341 195.738 38.9612 195.639 39.06C195.639 39.0106 195.664 38.9612 195.713 38.9118C195.565 38.7635 195.466 38.5412 195.417 38.2447C195.071 37.8494 194.404 36.6388 193.415 34.6129C193.218 34.8106 192.971 35.0824 192.674 35.4282C192.378 35.7741 192.032 36.1447 191.637 36.54C191.587 36.6388 191.538 36.7624 191.488 36.9106C191.439 37.0094 191.39 37.1577 191.34 37.3553L190.821 37.6518C190.821 37.7506 190.797 37.8741 190.747 38.0224C190.747 38.1212 190.723 38.2694 190.673 38.4671C190.624 38.4671 190.475 38.5659 190.228 38.7635C190.031 38.9612 189.833 39.06 189.635 39.06C189.586 39.06 189.512 39.0106 189.413 38.9118C189.314 39.0106 189.191 39.1588 189.043 39.3565C188.894 39.5047 188.721 39.7024 188.524 39.9494C188.573 39.9988 188.721 40.0235 188.968 40.0235V40.32C188.968 40.3694 188.82 40.5424 188.524 40.8388L188.672 40.9871C188.524 41.0859 188.203 41.3824 187.708 41.8765C187.659 41.8765 187.56 41.8765 187.412 41.8765C187.313 41.8765 187.19 41.9012 187.041 41.9506C186.399 42.1977 186.201 42.3212 186.448 42.3212C186.3 42.3212 186.127 42.2965 185.93 42.2471H185.485C185.386 42.2471 185.337 42.2965 185.337 42.3953Z" fill="black"/>
</svg>
